0, 0, Header, 0, 1, 96
1, 0, Start_track
1, 0, Title_t, "MIDI Drums\000"
1, 0, Time_signature, 4, 2, 36, 8
1, 0, Time_signature, 4, 2, 36, 8
1, 0, Note_on_c, 0, 36, 94
1, 0, Note_on_c, 0, 42, 1
1, 43, Note_off_c, 0, 36, 64
1, 48, Note_on_c, 0, 36, 48
1, 48, Note_off_c, 0, 42, 64
1, 48, Note_on_c, 0, 42, 60
1, 67, Note_off_c, 0, 36, 64
1, 95, Note_off_c, 0, 42, 64
1, 96, Note_on_c, 0, 36, 44
1, 96, Note_on_c, 0, 38, 64
1, 96, Note_on_c, 0, 42, 16
1, 129, Note_off_c, 0, 38, 64
1, 140, Note_off_c, 0, 36, 64
1, 144, Note_on_c, 0, 36, 45
1, 144, Note_off_c, 0, 42, 64
1, 144, Note_on_c, 0, 42, 60
1, 164, Note_off_c, 0, 36, 64
1, 168, Note_on_c, 0, 36, 63
1, 168, Note_on_c, 0, 38, 51
1, 168, Note_off_c, 0, 42, 64
1, 168, Note_on_c, 0, 42, 14
1, 181, Note_off_c, 0, 38, 64
1, 190, Note_off_c, 0, 36, 64
1, 190, Note_off_c, 0, 42, 64
1, 192, Note_on_c, 0, 36, 119
1, 192, Note_on_c, 0, 42, 1
1, 216, Note_off_c, 0, 36, 64
1, 216, Note_on_c, 0, 36, 42
1, 216, Note_off_c, 0, 42, 64
1, 216, Note_on_c, 0, 42, 59
1, 238, Note_off_c, 0, 36, 64
1, 238, Note_off_c, 0, 42, 64
1, 240, Note_on_c, 0, 36, 52
1, 240, Note_on_c, 0, 38, 48
1, 240, Note_on_c, 0, 42, 11
1, 254, Note_off_c, 0, 38, 64
1, 283, Note_off_c, 0, 36, 64
1, 287, Note_off_c, 0, 42, 64
1, 288, Note_on_c, 0, 36, 55
1, 288, Note_on_c, 0, 38, 47
1, 288, Note_on_c, 0, 42, 21
1, 321, Note_off_c, 0, 38, 64
1, 336, Note_off_c, 0, 36, 64
1, 336, Note_on_c, 0, 36, 56
1, 336, Note_on_c, 0, 38, 51
1, 336, Note_off_c, 0, 42, 64
1, 336, Note_on_c, 0, 42, 54
1, 351, Note_off_c, 0, 38, 64
1, 378, Note_off_c, 0, 36, 64
1, 384, Note_on_c, 0, 36, 87
1, 384, Note_off_c, 0, 42, 64
1, 384, Note_on_c, 0, 42, 5
1, 417, Note_off_c, 0, 42, 64
1, 428, Note_off_c, 0, 36, 64
1, 432, Note_on_c, 0, 36, 45
1, 432, Note_on_c, 0, 42, 60
1, 451, Note_off_c, 0, 36, 64
1, 479, Note_off_c, 0, 42, 64
1, 480, Note_on_c, 0, 36, 44
1, 480, Note_on_c, 0, 38, 65
1, 480, Note_on_c, 0, 42, 17
1, 513, Note_off_c, 0, 38, 64
1, 524, Note_off_c, 0, 36, 64
1, 528, Note_on_c, 0, 36, 45
1, 528, Note_off_c, 0, 42, 64
1, 528, Note_on_c, 0, 42, 60
1, 548, Note_off_c, 0, 36, 64
1, 552, Note_on_c, 0, 36, 42
1, 552, Note_on_c, 0, 38, 51
1, 552, Note_off_c, 0, 42, 64
1, 552, Note_on_c, 0, 42, 14
1, 565, Note_off_c, 0, 38, 64
1, 574, Note_off_c, 0, 36, 64
1, 574, Note_off_c, 0, 42, 64
1, 576, Note_on_c, 0, 36, 90
1, 576, Note_on_c, 0, 42, 1
1, 600, Note_off_c, 0, 36, 64
1, 600, Note_on_c, 0, 36, 47
1, 600, Note_off_c, 0, 42, 64
1, 600, Note_on_c, 0, 42, 59
1, 622, Note_off_c, 0, 36, 64
1, 622, Note_off_c, 0, 42, 64
1, 624, Note_on_c, 0, 36, 54
1, 624, Note_on_c, 0, 38, 49
1, 624, Note_on_c, 0, 42, 49
1, 648, Note_off_c, 0, 38, 64
1, 665, Note_off_c, 0, 36, 64
1, 671, Note_off_c, 0, 42, 64
1, 672, Note_on_c, 0, 36, 55
1, 672, Note_on_c, 0, 38, 46
1, 672, Note_on_c, 0, 42, 20
1, 713, Note_off_c, 0, 38, 64
1, 720, Note_off_c, 0, 36, 64
1, 720, Note_on_c, 0, 36, 57
1, 720, Note_on_c, 0, 38, 51
1, 720, Note_off_c, 0, 42, 64
1, 720, Note_on_c, 0, 42, 54
1, 735, Note_off_c, 0, 38, 64
1, 762, Note_off_c, 0, 36, 64
1, 768, Note_off_c, 0, 42, 64
1, 768, Note_on_c, 0, 42, 5
1, 816, Note_off_c, 0, 42, 64
1, 816, Note_on_c, 0, 42, 60
1, 862, Note_off_c, 0, 42, 64
1, 864, Note_on_c, 0, 38, 61
1, 864, Note_on_c, 0, 42, 28
1, 896, Note_off_c, 0, 38, 64
1, 912, Note_off_c, 0, 42, 64
1, 912, Note_on_c, 0, 42, 60
1, 936, Note_on_c, 0, 36, 64
1, 936, Note_on_c, 0, 38, 52
1, 936, Note_off_c, 0, 42, 64
1, 936, Note_on_c, 0, 42, 14
1, 949, Note_off_c, 0, 38, 64
1, 981, Note_off_c, 0, 36, 64
1, 984, Note_off_c, 0, 42, 64
1, 984, Note_on_c, 0, 42, 59
1, 1005, Note_off_c, 0, 42, 64
1, 1008, Note_on_c, 0, 36, 52
1, 1008, Note_on_c, 0, 38, 48
1, 1008, Note_on_c, 0, 42, 11
1, 1021, Note_off_c, 0, 38, 64
1, 1051, Note_off_c, 0, 36, 64
1, 1056, Note_on_c, 0, 38, 53
1, 1056, Note_off_c, 0, 42, 64
1, 1056, Note_on_c, 0, 42, 29
1, 1090, Note_off_c, 0, 38, 64
1, 1103, Note_off_c, 0, 42, 64
1, 1104, Note_on_c, 0, 36, 56
1, 1104, Note_on_c, 0, 38, 51
1, 1104, Note_on_c, 0, 42, 54
1, 1119, Note_off_c, 0, 38, 64
1, 1148, Note_off_c, 0, 36, 64
1, 1200, Note_off_c, 0, 42, 64
1, 1200, Note_on_c, 0, 42, 60
1, 1246, Note_off_c, 0, 42, 64
1, 1248, Note_on_c, 0, 38, 61
1, 1248, Note_on_c, 0, 42, 28
1, 1280, Note_off_c, 0, 38, 64
1, 1296, Note_off_c, 0, 42, 64
1, 1296, Note_on_c, 0, 42, 60
1, 1320, Note_on_c, 0, 36, 42
1, 1320, Note_on_c, 0, 38, 52
1, 1320, Note_off_c, 0, 42, 64
1, 1320, Note_on_c, 0, 42, 14
1, 1333, Note_off_c, 0, 38, 64
1, 1363, Note_off_c, 0, 36, 64
1, 1368, Note_off_c, 0, 42, 64
1, 1368, Note_on_c, 0, 42, 59
1, 1389, Note_off_c, 0, 42, 64
1, 1392, Note_on_c, 0, 36, 54
1, 1392, Note_on_c, 0, 38, 49
1, 1392, Note_on_c, 0, 42, 49
1, 1416, Note_off_c, 0, 38, 64
1, 1432, Note_off_c, 0, 36, 64
1, 1440, Note_on_c, 0, 38, 53
1, 1440, Note_off_c, 0, 42, 64
1, 1440, Note_on_c, 0, 42, 28
1, 1482, Note_off_c, 0, 38, 64
1, 1488, Note_on_c, 0, 36, 58
1, 1488, Note_on_c, 0, 38, 51
1, 1488, Note_off_c, 0, 42, 64
1, 1488, Note_on_c, 0, 42, 54
1, 1504, Note_off_c, 0, 38, 64
1, 1535, Note_off_c, 0, 36, 64
1, 1535, Note_off_c, 0, 42, 64
1, 1536, Note_on_c, 0, 36, 66
1, 1536, Note_on_c, 0, 38, 53
1, 1536, Note_on_c, 0, 42, 5
1, 1550, Note_off_c, 0, 38, 64
1, 1578, Note_off_c, 0, 42, 64
1, 1584, Note_off_c, 0, 36, 64
1, 1584, Note_on_c, 0, 36, 72
1, 1584, Note_on_c, 0, 42, 55
1, 1608, Note_on_c, 0, 38, 51
1, 1608, Note_off_c, 0, 42, 64
1, 1608, Note_on_c, 0, 42, 10
1, 1619, Note_off_c, 0, 36, 64
1, 1629, Note_off_c, 0, 38, 64
1, 1629, Note_off_c, 0, 42, 64
1, 1632, Note_on_c, 0, 36, 73
1, 1632, Note_on_c, 0, 38, 91
1, 1632, Note_on_c, 0, 42, 8
1, 1650, Note_off_c, 0, 38, 64
1, 1667, Note_off_c, 0, 42, 64
1, 1680, Note_off_c, 0, 36, 64
1, 1680, Note_on_c, 0, 36, 74
1, 1680, Note_on_c, 0, 42, 47
1, 1720, Note_off_c, 0, 36, 64
1, 1728, Note_on_c, 0, 36, 49
1, 1728, Note_on_c, 0, 38, 66
1, 1728, Note_off_c, 0, 42, 64
1, 1728, Note_on_c, 0, 42, 1
1, 1740, Note_off_c, 0, 38, 64
1, 1743, Note_off_c, 0, 42, 64
1, 1776, Note_off_c, 0, 36, 64
1, 1776, Note_on_c, 0, 36, 74
1, 1776, Note_on_c, 0, 38, 48
1, 1776, Note_on_c, 0, 42, 53
1, 1792, Note_off_c, 0, 38, 64
1, 1812, Note_off_c, 0, 36, 64
1, 1821, Note_off_c, 0, 42, 64
1, 1824, Note_on_c, 0, 36, 53
1, 1824, Note_on_c, 0, 38, 67
1, 1824, Note_on_c, 0, 42, 8
1, 1847, Note_off_c, 0, 38, 64
1, 1872, Note_off_c, 0, 36, 64
1, 1872, Note_on_c, 0, 36, 76
1, 1872, Note_off_c, 0, 42, 64
1, 1872, Note_on_c, 0, 42, 55
1, 1903, Note_off_c, 0, 42, 64
1, 1907, Note_off_c, 0, 36, 64
1, 1920, Note_on_c, 0, 36, 65
1, 1920, Note_on_c, 0, 38, 53
1, 1920, Note_on_c, 0, 42, 1
1, 1934, Note_off_c, 0, 38, 64
1, 1935, Note_off_c, 0, 42, 64
1, 1968, Note_off_c, 0, 36, 64
1, 1968, Note_on_c, 0, 36, 72
1, 1968, Note_on_c, 0, 42, 55
1, 1991, Note_off_c, 0, 42, 64
1, 1992, Note_on_c, 0, 38, 56
1, 1992, Note_on_c, 0, 42, 14
1, 2003, Note_off_c, 0, 36, 64
1, 2015, Note_off_c, 0, 38, 64
1, 2015, Note_off_c, 0, 42, 64
1, 2016, Note_on_c, 0, 36, 73
1, 2016, Note_on_c, 0, 38, 97
1, 2016, Note_on_c, 0, 42, 8
1, 2035, Note_off_c, 0, 38, 64
1, 2042, Note_off_c, 0, 36, 64
1, 2051, Note_off_c, 0, 42, 64
1, 2064, Note_on_c, 0, 36, 49
1, 2064, Note_on_c, 0, 42, 57
1, 2092, Note_off_c, 0, 36, 64
1, 2112, Note_on_c, 0, 36, 58
1, 2112, Note_on_c, 0, 38, 59
1, 2112, Note_off_c, 0, 42, 64
1, 2112, Note_on_c, 0, 42, 3
1, 2127, Note_off_c, 0, 38, 64
1, 2128, Note_off_c, 0, 42, 64
1, 2160, Note_off_c, 0, 36, 64
1, 2160, Note_on_c, 0, 36, 75
1, 2160, Note_on_c, 0, 38, 41
1, 2160, Note_on_c, 0, 42, 62
1, 2176, Note_off_c, 0, 38, 64
1, 2194, Note_off_c, 0, 36, 64
1, 2205, Note_off_c, 0, 42, 64
1, 2208, Note_on_c, 0, 36, 63
1, 2208, Note_on_c, 0, 38, 56
1, 2208, Note_on_c, 0, 42, 11
1, 2232, Note_off_c, 0, 38, 64
1, 2256, Note_off_c, 0, 36, 64
1, 2256, Note_on_c, 0, 36, 77
1, 2256, Note_off_c, 0, 42, 64
1, 2256, Note_on_c, 0, 42, 57
1, 2288, Note_off_c, 0, 42, 64
1, 2289, Note_off_c, 0, 36, 64
1, 2304, Note_on_c, 0, 36, 76
1, 2339, Note_off_c, 0, 36, 64
1, 2400, Note_on_c, 0, 36, 78
1, 2400, Note_on_c, 0, 38, 43
1, 2400, Note_on_c, 0, 42, 11
1, 2425, Note_off_c, 0, 38, 64
1, 2435, Note_off_c, 0, 36, 64
1, 2435, Note_off_c, 0, 42, 64
1, 2496, Note_on_c, 0, 36, 78
1, 2496, Note_on_c, 0, 42, 1
1, 2507, Note_off_c, 0, 42, 64
1, 2554, Note_off_c, 0, 36, 64
1, 2592, Note_on_c, 0, 36, 76
1, 2592, Note_on_c, 0, 38, 56
1, 2592, Note_on_c, 0, 42, 11
1, 2616, Note_off_c, 0, 38, 64
1, 2626, Note_off_c, 0, 36, 64
1, 2627, Note_off_c, 0, 42, 64
1, 2688, Note_on_c, 0, 36, 76
1, 2688, Note_on_c, 0, 42, 1
1, 2699, Note_off_c, 0, 42, 64
1, 2723, Note_off_c, 0, 36, 64
1, 2784, Note_on_c, 0, 36, 78
1, 2784, Note_on_c, 0, 38, 43
1, 2784, Note_on_c, 0, 42, 11
1, 2809, Note_off_c, 0, 38, 64
1, 2819, Note_off_c, 0, 36, 64
1, 2819, Note_off_c, 0, 42, 64
1, 2880, Note_on_c, 0, 36, 78
1, 2880, Note_on_c, 0, 42, 1
1, 2891, Note_off_c, 0, 42, 64
1, 2938, Note_off_c, 0, 36, 64
1, 2976, Note_on_c, 0, 36, 76
1, 2976, Note_on_c, 0, 38, 56
1, 2976, Note_on_c, 0, 42, 11
1, 3000, Note_off_c, 0, 38, 64
1, 3010, Note_off_c, 0, 36, 64
1, 3011, Note_off_c, 0, 42, 64
1, 3072, Note_on_c, 0, 42, 10
1, 3120, Note_off_c, 0, 42, 64
1, 3120, Note_on_c, 0, 42, 58
1, 3144, Note_on_c, 0, 38, 42
1, 3144, Note_off_c, 0, 42, 64
1, 3144, Note_on_c, 0, 42, 12
1, 3167, Note_off_c, 0, 38, 64
1, 3167, Note_off_c, 0, 42, 64
1, 3168, Note_on_c, 0, 38, 57
1, 3168, Note_on_c, 0, 42, 16
1, 3190, Note_off_c, 0, 38, 64
1, 3215, Note_off_c, 0, 42, 64
1, 3216, Note_on_c, 0, 42, 57
1, 3264, Note_off_c, 0, 42, 64
1, 3264, Note_on_c, 0, 42, 10
1, 3312, Note_on_c, 0, 38, 43
1, 3312, Note_off_c, 0, 42, 64
1, 3312, Note_on_c, 0, 42, 62
1, 3327, Note_off_c, 0, 38, 64
1, 3360, Note_on_c, 0, 38, 47
1, 3360, Note_off_c, 0, 42, 64
1, 3360, Note_on_c, 0, 42, 18
1, 3385, Note_off_c, 0, 38, 64
1, 3408, Note_off_c, 0, 42, 64
1, 3408, Note_on_c, 0, 42, 57
1, 3440, Note_off_c, 0, 42, 64
1, 3456, Note_on_c, 0, 42, 10
1, 3504, Note_off_c, 0, 42, 64
1, 3504, Note_on_c, 0, 42, 58
1, 3526, Note_off_c, 0, 42, 64
1, 3528, Note_on_c, 0, 38, 49
1, 3528, Note_on_c, 0, 42, 12
1, 3552, Note_off_c, 0, 38, 64
1, 3552, Note_on_c, 0, 38, 50
1, 3552, Note_off_c, 0, 42, 64
1, 3552, Note_on_c, 0, 42, 16
1, 3576, Note_off_c, 0, 38, 64
1, 3599, Note_off_c, 0, 42, 64
1, 3600, Note_on_c, 0, 42, 57
1, 3648, Note_off_c, 0, 42, 64
1, 3648, Note_on_c, 0, 42, 10
1, 3696, Note_on_c, 0, 38, 42
1, 3696, Note_off_c, 0, 42, 64
1, 3696, Note_on_c, 0, 42, 62
1, 3711, Note_off_c, 0, 38, 64
1, 3744, Note_on_c, 0, 38, 47
1, 3744, Note_off_c, 0, 42, 64
1, 3744, Note_on_c, 0, 42, 18
1, 3769, Note_off_c, 0, 38, 64
1, 3792, Note_off_c, 0, 42, 64
1, 3792, Note_on_c, 0, 42, 57
1, 3824, Note_off_c, 0, 42, 64
1, 3840, Note_on_c, 0, 36, 71
1, 3840, Note_on_c, 0, 42, 1
1, 3861, Note_off_c, 0, 42, 64
1, 3871, Note_off_c, 0, 36, 64
1, 3888, Note_on_c, 0, 38, 45
1, 3888, Note_on_c, 0, 42, 61
1, 3933, Note_off_c, 0, 38, 64
1, 3933, Note_off_c, 0, 42, 64
1, 3936, Note_on_c, 0, 36, 63
1, 3936, Note_on_c, 0, 38, 77
1, 3936, Note_on_c, 0, 42, 17
1, 3956, Note_off_c, 0, 38, 64
1, 3967, Note_off_c, 0, 36, 64
1, 3984, Note_off_c, 0, 42, 64
1, 3984, Note_on_c, 0, 42, 64
1, 4015, Note_off_c, 0, 42, 64
1, 4032, Note_on_c, 0, 36, 109
1, 4032, Note_on_c, 0, 42, 1
1, 4053, Note_off_c, 0, 42, 64
1, 4062, Note_off_c, 0, 36, 64
1, 4080, Note_on_c, 0, 36, 94
1, 4080, Note_on_c, 0, 42, 3
1, 4091, Note_off_c, 0, 36, 64
1, 4125, Note_off_c, 0, 42, 64
1, 4128, Note_on_c, 0, 36, 61
1, 4128, Note_on_c, 0, 38, 43
1, 4128, Note_on_c, 0, 42, 17
1, 4148, Note_off_c, 0, 38, 64
1, 4160, Note_off_c, 0, 36, 64
1, 4176, Note_off_c, 0, 42, 64
1, 4176, Note_on_c, 0, 42, 74
1, 4207, Note_off_c, 0, 42, 64
1, 4224, Note_on_c, 0, 36, 118
1, 4224, Note_on_c, 0, 42, 1
1, 4244, Note_off_c, 0, 42, 64
1, 4254, Note_off_c, 0, 36, 64
1, 4272, Note_on_c, 0, 36, 46
1, 4272, Note_on_c, 0, 42, 78
1, 4301, Note_off_c, 0, 36, 64
1, 4317, Note_off_c, 0, 42, 64
1, 4320, Note_on_c, 0, 36, 45
1, 4320, Note_on_c, 0, 38, 61
1, 4320, Note_on_c, 0, 42, 17
1, 4340, Note_off_c, 0, 38, 64
1, 4352, Note_off_c, 0, 36, 64
1, 4368, Note_off_c, 0, 42, 64
1, 4368, Note_on_c, 0, 42, 73
1, 4398, Note_off_c, 0, 42, 64
1, 4416, Note_on_c, 0, 36, 120
1, 4416, Note_on_c, 0, 42, 1
1, 4437, Note_off_c, 0, 42, 64
1, 4446, Note_off_c, 0, 36, 64
1, 4464, Note_on_c, 0, 36, 62
1, 4464, Note_on_c, 0, 42, 77
1, 4491, Note_off_c, 0, 36, 64
1, 4511, Note_off_c, 0, 42, 64
1, 4512, Note_on_c, 0, 36, 61
1, 4512, Note_on_c, 0, 38, 43
1, 4512, Note_on_c, 0, 42, 18
1, 4532, Note_off_c, 0, 38, 64
1, 4544, Note_off_c, 0, 36, 64
1, 4544, Note_on_c, 0, 36, 74
1, 4544, Note_off_c, 0, 42, 64
1, 4544, Note_on_c, 0, 42, 22
1, 4560, Note_off_c, 0, 36, 64
1, 4560, Note_on_c, 0, 36, 73
1, 4560, Note_off_c, 0, 42, 64
1, 4560, Note_on_c, 0, 42, 75
1, 4587, Note_off_c, 0, 36, 64
1, 4587, Note_off_c, 0, 42, 64
1, 4592, Note_on_c, 0, 36, 48
1, 4592, Note_on_c, 0, 38, 44
1, 4592, Note_on_c, 0, 42, 5
1, 4607, Note_off_c, 0, 38, 64
1, 4608, Note_off_c, 0, 36, 64
1, 4608, Note_on_c, 0, 36, 120
1, 4608, Note_off_c, 0, 42, 64
1, 4608, Note_on_c, 0, 42, 1
1, 4638, Note_off_c, 0, 36, 64
1, 4642, Note_off_c, 0, 42, 64
1, 4704, Note_on_c, 0, 38, 60
1, 4704, Note_on_c, 0, 42, 17
1, 4725, Note_off_c, 0, 38, 64
1, 4758, Note_off_c, 0, 42, 64
1, 4896, Note_on_c, 0, 38, 41
1, 4896, Note_on_c, 0, 42, 17
1, 4917, Note_off_c, 0, 38, 64
1, 4977, Note_off_c, 0, 42, 64
1, 4992, Note_on_c, 0, 42, 1
1, 5021, Note_off_c, 0, 42, 64
1, 5088, Note_on_c, 0, 38, 61
1, 5088, Note_on_c, 0, 42, 17
1, 5109, Note_off_c, 0, 38, 64
1, 5142, Note_off_c, 0, 42, 64
1, 5280, Note_on_c, 0, 38, 42
1, 5280, Note_on_c, 0, 42, 18
1, 5301, Note_off_c, 0, 38, 64
1, 5361, Note_off_c, 0, 42, 64
1, 5376, Note_on_c, 0, 42, 4
1, 5399, Note_off_c, 0, 42, 64
1, 5424, Note_on_c, 0, 36, 46
1, 5424, Note_on_c, 0, 42, 78
1, 5453, Note_off_c, 0, 36, 64
1, 5469, Note_off_c, 0, 42, 64
1, 5472, Note_on_c, 0, 38, 42
1, 5472, Note_on_c, 0, 42, 23
1, 5492, Note_off_c, 0, 38, 64
1, 5520, Note_on_c, 0, 36, 57
1, 5520, Note_off_c, 0, 42, 64
1, 5520, Note_on_c, 0, 42, 73
1, 5550, Note_off_c, 0, 42, 64
1, 5564, Note_off_c, 0, 36, 64
1, 5568, Note_on_c, 0, 36, 48
1, 5568, Note_on_c, 0, 42, 4
1, 5591, Note_off_c, 0, 36, 64
1, 5604, Note_off_c, 0, 42, 64
1, 5616, Note_on_c, 0, 36, 62
1, 5616, Note_on_c, 0, 42, 77
1, 5643, Note_off_c, 0, 36, 64
1, 5661, Note_off_c, 0, 42, 64
1, 5664, Note_on_c, 0, 38, 54
1, 5664, Note_on_c, 0, 42, 24
1, 5684, Note_off_c, 0, 38, 64
1, 5712, Note_on_c, 0, 36, 40
1, 5712, Note_off_c, 0, 42, 64
1, 5712, Note_on_c, 0, 42, 74
1, 5743, Note_off_c, 0, 42, 64
1, 5758, Note_off_c, 0, 36, 64
1, 5760, Note_on_c, 0, 36, 50
1, 5760, Note_on_c, 0, 42, 4
1, 5784, Note_off_c, 0, 36, 64
1, 5795, Note_off_c, 0, 42, 64
1, 5808, Note_on_c, 0, 36, 46
1, 5808, Note_on_c, 0, 42, 78
1, 5837, Note_off_c, 0, 36, 64
1, 5853, Note_off_c, 0, 42, 64
1, 5856, Note_on_c, 0, 38, 42
1, 5856, Note_on_c, 0, 42, 23
1, 5876, Note_off_c, 0, 38, 64
1, 5904, Note_on_c, 0, 36, 57
1, 5904, Note_off_c, 0, 42, 64
1, 5904, Note_on_c, 0, 42, 73
1, 5934, Note_off_c, 0, 42, 64
1, 5948, Note_off_c, 0, 36, 64
1, 5952, Note_on_c, 0, 36, 48
1, 5952, Note_on_c, 0, 42, 4
1, 5975, Note_off_c, 0, 36, 64
1, 5992, Note_off_c, 0, 42, 64
1, 6000, Note_on_c, 0, 36, 62
1, 6000, Note_on_c, 0, 42, 77
1, 6027, Note_off_c, 0, 36, 64
1, 6045, Note_off_c, 0, 42, 64
1, 6048, Note_on_c, 0, 38, 54
1, 6048, Note_on_c, 0, 42, 24
1, 6068, Note_off_c, 0, 38, 64
1, 6080, Note_on_c, 0, 36, 56
1, 6080, Note_off_c, 0, 42, 64
1, 6080, Note_on_c, 0, 42, 22
1, 6096, Note_off_c, 0, 36, 64
1, 6096, Note_on_c, 0, 36, 106
1, 6096, Note_off_c, 0, 42, 64
1, 6096, Note_on_c, 0, 42, 75
1, 6123, Note_off_c, 0, 42, 64
1, 6128, Note_on_c, 0, 38, 44
1, 6128, Note_on_c, 0, 42, 5
1, 6131, Note_off_c, 0, 36, 64
1, 6143, Note_off_c, 0, 38, 64
1, 6144, Note_on_c, 0, 36, 101
1, 6158, Note_off_c, 0, 42, 64
1, 6192, Note_on_c, 0, 42, 3
1, 6197, Note_off_c, 0, 36, 64
1, 6216, Note_on_c, 0, 36, 55
1, 6216, Note_off_c, 0, 42, 64
1, 6216, Note_on_c, 0, 42, 1
1, 6237, Note_off_c, 0, 36, 64
1, 6237, Note_off_c, 0, 42, 64
1, 6240, Note_on_c, 0, 36, 45
1, 6240, Note_on_c, 0, 38, 34
1, 6240, Note_on_c, 0, 42, 12
1, 6258, Note_off_c, 0, 38, 64
1, 6288, Note_off_c, 0, 36, 64
1, 6288, Note_on_c, 0, 36, 54
1, 6288, Note_off_c, 0, 42, 64
1, 6288, Note_on_c, 0, 42, 1
1, 6328, Note_off_c, 0, 36, 64
1, 6335, Note_off_c, 0, 42, 64
1, 6336, Note_on_c, 0, 36, 65
1, 6336, Note_on_c, 0, 42, 1
1, 6384, Note_off_c, 0, 36, 64
1, 6384, Note_on_c, 0, 36, 44
1, 6384, Note_off_c, 0, 42, 64
1, 6384, Note_on_c, 0, 42, 3
1, 6408, Note_off_c, 0, 36, 64
1, 6408, Note_on_c, 0, 36, 66
1, 6408, Note_off_c, 0, 42, 64
1, 6408, Note_on_c, 0, 42, 1
1, 6429, Note_off_c, 0, 36, 64
1, 6429, Note_off_c, 0, 42, 64
1, 6432, Note_on_c, 0, 36, 45
1, 6432, Note_on_c, 0, 38, 44
1, 6432, Note_on_c, 0, 42, 12
1, 6450, Note_off_c, 0, 38, 64
1, 6480, Note_off_c, 0, 36, 64
1, 6480, Note_on_c, 0, 36, 47
1, 6480, Note_off_c, 0, 42, 64
1, 6480, Note_on_c, 0, 42, 1
1, 6527, Note_off_c, 0, 36, 64
1, 6527, Note_off_c, 0, 42, 64
1, 6528, Note_on_c, 0, 36, 47
1, 6528, Note_on_c, 0, 42, 1
1, 6567, Note_off_c, 0, 42, 64
1, 6576, Note_off_c, 0, 36, 64
1, 6576, Note_on_c, 0, 36, 46
1, 6576, Note_on_c, 0, 42, 3
1, 6600, Note_off_c, 0, 36, 64
1, 6600, Note_on_c, 0, 36, 55
1, 6600, Note_off_c, 0, 42, 64
1, 6600, Note_on_c, 0, 42, 1
1, 6621, Note_off_c, 0, 36, 64
1, 6621, Note_off_c, 0, 42, 64
1, 6624, Note_on_c, 0, 36, 45
1, 6624, Note_on_c, 0, 38, 35
1, 6624, Note_on_c, 0, 42, 12
1, 6642, Note_off_c, 0, 38, 64
1, 6672, Note_off_c, 0, 36, 64
1, 6672, Note_on_c, 0, 36, 54
1, 6672, Note_off_c, 0, 42, 64
1, 6672, Note_on_c, 0, 42, 1
1, 6712, Note_off_c, 0, 36, 64
1, 6719, Note_off_c, 0, 42, 64
1, 6720, Note_on_c, 0, 36, 65
1, 6720, Note_on_c, 0, 42, 1
1, 6768, Note_off_c, 0, 36, 64
1, 6768, Note_on_c, 0, 36, 44
1, 6768, Note_off_c, 0, 42, 64
1, 6768, Note_on_c, 0, 42, 3
1, 6792, Note_off_c, 0, 36, 64
1, 6792, Note_on_c, 0, 36, 66
1, 6792, Note_off_c, 0, 42, 64
1, 6792, Note_on_c, 0, 42, 1
1, 6813, Note_off_c, 0, 36, 64
1, 6813, Note_off_c, 0, 42, 64
1, 6816, Note_on_c, 0, 36, 45
1, 6816, Note_on_c, 0, 38, 44
1, 6816, Note_on_c, 0, 42, 12
1, 6834, Note_off_c, 0, 38, 64
1, 6840, Note_off_c, 0, 36, 64
1, 6840, Note_on_c, 0, 36, 51
1, 6840, Note_on_c, 0, 38, 31
1, 6840, Note_off_c, 0, 42, 64
1, 6840, Note_on_c, 0, 42, 7
1, 6857, Note_off_c, 0, 38, 64
1, 6864, Note_off_c, 0, 36, 64
1, 6864, Note_on_c, 0, 36, 52
1, 6864, Note_off_c, 0, 42, 64
1, 6864, Note_on_c, 0, 42, 1
1, 6906, Note_off_c, 0, 36, 64
1, 6911, Note_off_c, 0, 42, 64
1, 6960, Note_on_c, 0, 42, 3
1, 6984, Note_on_c, 0, 36, 55
1, 6984, Note_off_c, 0, 42, 64
1, 6984, Note_on_c, 0, 42, 1
1, 7005, Note_off_c, 0, 42, 64
1, 7008, Note_on_c, 0, 38, 33
1, 7008, Note_on_c, 0, 42, 17
1, 7024, Note_off_c, 0, 36, 64
1, 7029, Note_off_c, 0, 38, 64
1, 7056, Note_on_c, 0, 36, 59
1, 7056, Note_off_c, 0, 42, 64
1, 7056, Note_on_c, 0, 42, 1
1, 7096, Note_off_c, 0, 36, 64
1, 7152, Note_off_c, 0, 42, 64
1, 7152, Note_on_c, 0, 42, 3
1, 7176, Note_on_c, 0, 36, 66
1, 7176, Note_off_c, 0, 42, 64
1, 7176, Note_on_c, 0, 42, 1
1, 7197, Note_off_c, 0, 42, 64
1, 7200, Note_on_c, 0, 38, 39
1, 7200, Note_on_c, 0, 42, 16
1, 7215, Note_off_c, 0, 36, 64
1, 7219, Note_off_c, 0, 38, 64
1, 7248, Note_on_c, 0, 36, 48
1, 7248, Note_off_c, 0, 42, 64
1, 7248, Note_on_c, 0, 42, 1
1, 7289, Note_off_c, 0, 36, 64
1, 7299, Note_off_c, 0, 42, 64
1, 7344, Note_on_c, 0, 42, 3
1, 7368, Note_on_c, 0, 36, 55
1, 7368, Note_off_c, 0, 42, 64
1, 7368, Note_on_c, 0, 42, 1
1, 7389, Note_off_c, 0, 42, 64
1, 7392, Note_on_c, 0, 38, 34
1, 7392, Note_on_c, 0, 42, 17
1, 7408, Note_off_c, 0, 36, 64
1, 7413, Note_off_c, 0, 38, 64
1, 7440, Note_on_c, 0, 36, 60
1, 7440, Note_off_c, 0, 42, 64
1, 7440, Note_on_c, 0, 42, 1
1, 7480, Note_off_c, 0, 36, 64
1, 7536, Note_off_c, 0, 42, 64
1, 7536, Note_on_c, 0, 42, 3
1, 7560, Note_on_c, 0, 36, 66
1, 7560, Note_off_c, 0, 42, 64
1, 7560, Note_on_c, 0, 42, 1
1, 7581, Note_off_c, 0, 42, 64
1, 7584, Note_on_c, 0, 38, 39
1, 7584, Note_on_c, 0, 42, 16
1, 7599, Note_off_c, 0, 36, 64
1, 7603, Note_off_c, 0, 38, 64
1, 7608, Note_off_c, 0, 42, 64
1, 7608, Note_on_c, 0, 42, 7
1, 7632, Note_on_c, 0, 36, 48
1, 7632, Note_off_c, 0, 42, 64
1, 7632, Note_on_c, 0, 42, 1
1, 7674, Note_off_c, 0, 36, 64
1, 7679, Note_off_c, 0, 42, 64
1, 7680, Note_on_c, 0, 36, 70
1, 7680, Note_on_c, 0, 38, 41
1, 7680, Note_on_c, 0, 42, 18
1, 7693, Note_off_c, 0, 38, 64
1, 7727, Note_off_c, 0, 36, 64
1, 7727, Note_off_c, 0, 42, 64
1, 7728, Note_on_c, 0, 36, 103
1, 7728, Note_on_c, 0, 42, 70
1, 7761, Note_off_c, 0, 36, 64
1, 7776, Note_on_c, 0, 36, 69
1, 7776, Note_on_c, 0, 38, 44
1, 7776, Note_off_c, 0, 42, 64
1, 7776, Note_on_c, 0, 42, 45
1, 7804, Note_off_c, 0, 38, 64
1, 7823, Note_off_c, 0, 36, 64
1, 7823, Note_off_c, 0, 42, 64
1, 7824, Note_on_c, 0, 36, 96
1, 7824, Note_on_c, 0, 42, 53
1, 7872, Note_off_c, 0, 36, 64
1, 7872, Note_on_c, 0, 36, 60
1, 7872, Note_on_c, 0, 38, 33
1, 7872, Note_off_c, 0, 42, 64
1, 7872, Note_on_c, 0, 42, 63
1, 7884, Note_off_c, 0, 38, 64
1, 7920, Note_off_c, 0, 36, 64
1, 7920, Note_on_c, 0, 36, 108
1, 7920, Note_off_c, 0, 42, 64
1, 7920, Note_on_c, 0, 42, 70
1, 7950, Note_off_c, 0, 36, 64
1, 7968, Note_on_c, 0, 36, 81
1, 7968, Note_on_c, 0, 38, 32
1, 7968, Note_off_c, 0, 42, 64
1, 7968, Note_on_c, 0, 42, 45
1, 7991, Note_off_c, 0, 38, 64
1, 8016, Note_off_c, 0, 36, 64
1, 8016, Note_on_c, 0, 36, 122
1, 8016, Note_off_c, 0, 42, 64
1, 8016, Note_on_c, 0, 42, 53
1, 8064, Note_off_c, 0, 36, 64
1, 8064, Note_on_c, 0, 36, 59
1, 8064, Note_on_c, 0, 38, 42
1, 8064, Note_off_c, 0, 42, 64
1, 8064, Note_on_c, 0, 42, 61
1, 8082, Note_off_c, 0, 38, 64
1, 8093, Note_off_c, 0, 36, 64
1, 8093, Note_off_c, 0, 42, 64
1, 8096, Note_on_c, 0, 36, 104
1, 8096, Note_on_c, 0, 42, 65
1, 8112, Note_off_c, 0, 42, 64
1, 8112, Note_on_c, 0, 42, 56
1, 8128, Note_off_c, 0, 36, 64
1, 8160, Note_on_c, 0, 36, 50
1, 8160, Note_on_c, 0, 38, 43
1, 8160, Note_off_c, 0, 42, 64
1, 8160, Note_on_c, 0, 42, 46
1, 8186, Note_off_c, 0, 36, 64
1, 8188, Note_off_c, 0, 38, 64
1, 8189, Note_off_c, 0, 42, 64
1, 8208, Note_on_c, 0, 36, 70
1, 8208, Note_on_c, 0, 42, 52
1, 8238, Note_off_c, 0, 42, 64
1, 8240, Note_on_c, 0, 42, 70
1, 8256, Note_off_c, 0, 36, 64
1, 8256, Note_on_c, 0, 36, 70
1, 8256, Note_off_c, 0, 42, 64
1, 8256, Note_on_c, 0, 42, 30
1, 8304, Note_off_c, 0, 36, 64
1, 8304, Note_on_c, 0, 36, 104
1, 8304, Note_off_c, 0, 42, 64
1, 8304, Note_on_c, 0, 42, 69
1, 8333, Note_off_c, 0, 36, 64
1, 8352, Note_on_c, 0, 36, 81
1, 8352, Note_on_c, 0, 38, 31
1, 8352, Note_off_c, 0, 42, 64
1, 8352, Note_on_c, 0, 42, 33
1, 8376, Note_off_c, 0, 38, 64
1, 8400, Note_off_c, 0, 36, 64
1, 8400, Note_on_c, 0, 36, 111
1, 8400, Note_off_c, 0, 42, 64
1, 8400, Note_on_c, 0, 42, 51
1, 8448, Note_off_c, 0, 42, 64
1, 8448, Note_on_c, 0, 42, 23
1, 8493, Note_off_c, 0, 36, 64
1, 8496, Note_off_c, 0, 42, 64
1, 8496, Note_on_c, 0, 42, 76
1, 8543, Note_off_c, 0, 42, 64
1, 8544, Note_on_c, 0, 36, 54
1, 8544, Note_on_c, 0, 42, 22
1, 8592, Note_off_c, 0, 42, 64
1, 8592, Note_on_c, 0, 42, 57
1, 8640, Note_off_c, 0, 42, 64
1, 8640, Note_on_c, 0, 42, 75
1, 8658, Note_off_c, 0, 36, 64
1, 8688, Note_off_c, 0, 42, 64
1, 8688, Note_on_c, 0, 42, 75
1, 8736, Note_on_c, 0, 36, 53
1, 8736, Note_off_c, 0, 42, 64
1, 8736, Note_on_c, 0, 42, 23
1, 8783, Note_off_c, 0, 42, 64
1, 8784, Note_on_c, 0, 42, 57
1, 8831, Note_off_c, 0, 42, 64
1, 8832, Note_on_c, 0, 42, 72
1, 8851, Note_off_c, 0, 36, 64
1, 8863, Note_off_c, 0, 42, 64
1, 8864, Note_on_c, 0, 42, 85
1, 8880, Note_off_c, 0, 42, 64
1, 8880, Note_on_c, 0, 42, 60
1, 8928, Note_on_c, 0, 36, 52
1, 8928, Note_off_c, 0, 42, 64
1, 8928, Note_on_c, 0, 42, 20
1, 8976, Note_off_c, 0, 42, 64
1, 8976, Note_on_c, 0, 42, 56
1, 9005, Note_off_c, 0, 42, 64
1, 9008, Note_on_c, 0, 42, 70
1, 9024, Note_off_c, 0, 42, 64
1, 9024, Note_on_c, 0, 42, 30
1, 9042, Note_off_c, 0, 36, 64
1, 9072, Note_off_c, 0, 42, 64
1, 9072, Note_on_c, 0, 42, 76
1, 9120, Note_on_c, 0, 36, 56
1, 9120, Note_off_c, 0, 42, 64
1, 9120, Note_on_c, 0, 42, 22
1, 9168, Note_off_c, 0, 42, 64
1, 9168, Note_on_c, 0, 42, 56
1, 9216, Note_off_c, 0, 36, 64
1, 9216, Note_on_c, 0, 36, 99
1, 9216, Note_off_c, 0, 42, 64
1, 9216, Note_on_c, 0, 42, 3
1, 9247, Note_off_c, 0, 36, 64
1, 9311, Note_off_c, 0, 42, 64
1, 9312, Note_on_c, 0, 36, 116
1, 9312, Note_on_c, 0, 38, 44
1, 9312, Note_on_c, 0, 42, 30
1, 9336, Note_off_c, 0, 38, 64
1, 9342, Note_off_c, 0, 36, 64
1, 9408, Note_on_c, 0, 36, 103
1, 9408, Note_off_c, 0, 42, 64
1, 9408, Note_on_c, 0, 42, 1
1, 9439, Note_off_c, 0, 36, 64
1, 9504, Note_on_c, 0, 36, 113
1, 9504, Note_on_c, 0, 38, 30
1, 9504, Note_off_c, 0, 42, 64
1, 9504, Note_on_c, 0, 42, 31
1, 9528, Note_off_c, 0, 38, 64
1, 9534, Note_off_c, 0, 36, 64
1, 9600, Note_on_c, 0, 36, 99
1, 9600, Note_off_c, 0, 42, 64
1, 9600, Note_on_c, 0, 42, 1
1, 9631, Note_off_c, 0, 36, 64
1, 9695, Note_off_c, 0, 42, 64
1, 9696, Note_on_c, 0, 36, 116
1, 9696, Note_on_c, 0, 38, 44
1, 9696, Note_on_c, 0, 42, 30
1, 9720, Note_off_c, 0, 38, 64
1, 9726, Note_off_c, 0, 36, 64
1, 9792, Note_on_c, 0, 36, 103
1, 9792, Note_off_c, 0, 42, 64
1, 9792, Note_on_c, 0, 42, 1
1, 9823, Note_off_c, 0, 36, 64
1, 9888, Note_on_c, 0, 36, 113
1, 9888, Note_on_c, 0, 38, 30
1, 9888, Note_off_c, 0, 42, 64
1, 9888, Note_on_c, 0, 42, 31
1, 9912, Note_off_c, 0, 38, 64
1, 9918, Note_off_c, 0, 36, 64
1, 9984, Note_off_c, 0, 42, 64
1, 9984, Note_on_c, 0, 42, 26
1, 10032, Note_off_c, 0, 42, 64
1, 10032, Note_on_c, 0, 42, 76
1, 10079, Note_off_c, 0, 42, 64
1, 10080, Note_on_c, 0, 42, 24
1, 10128, Note_off_c, 0, 42, 64
1, 10128, Note_on_c, 0, 42, 62
1, 10175, Note_off_c, 0, 42, 64
1, 10176, Note_on_c, 0, 42, 77
1, 10224, Note_off_c, 0, 42, 64
1, 10224, Note_on_c, 0, 42, 6
1, 10272, Note_off_c, 0, 42, 64
1, 10272, Note_on_c, 0, 42, 39
1, 10319, Note_off_c, 0, 42, 64
1, 10320, Note_on_c, 0, 42, 91
1, 10368, Note_off_c, 0, 42, 64
1, 10368, Note_on_c, 0, 42, 115
1, 10398, Note_off_c, 0, 42, 64
1, 10400, Note_on_c, 0, 42, 127
1, 10416, Note_off_c, 0, 42, 64
1, 10416, Note_on_c, 0, 42, 89
1, 10464, Note_off_c, 0, 42, 64
1, 10464, Note_on_c, 0, 42, 40
1, 10512, Note_off_c, 0, 42, 64
1, 10512, Note_on_c, 0, 42, 92
1, 10542, Note_off_c, 0, 42, 64
1, 10544, Note_on_c, 0, 42, 111
1, 10560, Note_off_c, 0, 42, 64
1, 10560, Note_on_c, 0, 42, 41
1, 10607, Note_off_c, 0, 42, 64
1, 10608, Note_on_c, 0, 42, 112
1, 10656, Note_off_c, 0, 42, 64
1, 10656, Note_on_c, 0, 42, 39
1, 10704, Note_off_c, 0, 42, 64
1, 10704, Note_on_c, 0, 42, 91
1, 10751, Note_off_c, 0, 42, 64
1, 10752, Note_on_c, 0, 36, 113
1, 10752, Note_on_c, 0, 42, 24
1, 10776, Note_off_c, 0, 36, 64
1, 10776, Note_on_c, 0, 36, 92
1, 10776, Note_on_c, 0, 38, 53
1, 10776, Note_off_c, 0, 42, 64
1, 10776, Note_on_c, 0, 42, 35
1, 10799, Note_off_c, 0, 38, 64
1, 10799, Note_off_c, 0, 42, 64
1, 10800, Note_on_c, 0, 38, 66
1, 10800, Note_on_c, 0, 42, 52
1, 10813, Note_off_c, 0, 36, 64
1, 10824, Note_off_c, 0, 38, 64
1, 10824, Note_on_c, 0, 38, 52
1, 10824, Note_off_c, 0, 42, 64
1, 10824, Note_on_c, 0, 42, 61
1, 10847, Note_off_c, 0, 42, 64
1, 10848, Note_on_c, 0, 36, 122
1, 10848, Note_on_c, 0, 42, 67
1, 10851, Note_off_c, 0, 38, 64
1, 10877, Note_off_c, 0, 36, 64
1, 10877, Note_off_c, 0, 42, 64
1, 10880, Note_on_c, 0, 36, 92
1, 10880, Note_on_c, 0, 42, 16
1, 10896, Note_on_c, 0, 38, 52
1, 10896, Note_off_c, 0, 42, 64
1, 10896, Note_on_c, 0, 42, 12
1, 10912, Note_off_c, 0, 38, 64
1, 10919, Note_off_c, 0, 42, 64
1, 10920, Note_on_c, 0, 38, 55
1, 10920, Note_on_c, 0, 42, 14
1, 10927, Note_off_c, 0, 36, 64
1, 10944, Note_on_c, 0, 36, 69
1, 10944, Note_off_c, 0, 42, 64
1, 10944, Note_on_c, 0, 42, 4
1, 10951, Note_off_c, 0, 38, 64
1, 10972, Note_off_c, 0, 36, 64
1, 10972, Note_off_c, 0, 42, 64
1, 10976, Note_on_c, 0, 36, 95
1, 10976, Note_on_c, 0, 42, 15
1, 10992, Note_on_c, 0, 38, 65
1, 10992, Note_off_c, 0, 42, 64
1, 10992, Note_on_c, 0, 42, 15
1, 11012, Note_off_c, 0, 38, 64
1, 11012, Note_off_c, 0, 42, 64
1, 11016, Note_on_c, 0, 38, 53
1, 11016, Note_on_c, 0, 42, 13
1, 11017, Note_off_c, 0, 36, 64
1, 11039, Note_off_c, 0, 42, 64
1, 11040, Note_on_c, 0, 36, 88
1, 11040, Note_on_c, 0, 42, 3
1, 11045, Note_off_c, 0, 38, 64
1, 11069, Note_off_c, 0, 36, 64
1, 11069, Note_off_c, 0, 42, 64
1, 11072, Note_on_c, 0, 36, 94
1, 11072, Note_on_c, 0, 42, 16
1, 11088, Note_on_c, 0, 38, 58
1, 11088, Note_off_c, 0, 42, 64
1, 11088, Note_on_c, 0, 42, 12
1, 11104, Note_off_c, 0, 38, 64
1, 11116, Note_off_c, 0, 42, 64
1, 11119, Note_off_c, 0, 36, 64
1, 11120, Note_on_c, 0, 42, 17
1, 11136, Note_on_c, 0, 36, 111
1, 11136, Note_on_c, 0, 38, 61
1, 11136, Note_off_c, 0, 42, 64
1, 11136, Note_on_c, 0, 42, 5
1, 11146, Note_off_c, 0, 38, 64
1, 11160, Note_off_c, 0, 36, 64
1, 11160, Note_on_c, 0, 36, 91
1, 11160, Note_on_c, 0, 38, 52
1, 11160, Note_off_c, 0, 42, 64
1, 11160, Note_on_c, 0, 42, 16
1, 11184, Note_off_c, 0, 38, 64
1, 11184, Note_on_c, 0, 38, 70
1, 11184, Note_off_c, 0, 42, 64
1, 11184, Note_on_c, 0, 42, 16
1, 11200, Note_off_c, 0, 36, 64
1, 11207, Note_off_c, 0, 38, 64
1, 11207, Note_off_c, 0, 42, 64
1, 11208, Note_on_c, 0, 38, 58
1, 11208, Note_on_c, 0, 42, 13
1, 11231, Note_off_c, 0, 42, 64
1, 11232, Note_on_c, 0, 36, 122
1, 11232, Note_on_c, 0, 42, 3
1, 11235, Note_off_c, 0, 38, 64
1, 11261, Note_off_c, 0, 36, 64
1, 11261, Note_off_c, 0, 42, 64
1, 11264, Note_on_c, 0, 36, 91
1, 11264, Note_on_c, 0, 42, 16
1, 11280, Note_on_c, 0, 38, 52
1, 11280, Note_off_c, 0, 42, 64
1, 11280, Note_on_c, 0, 42, 12
1, 11296, Note_off_c, 0, 38, 64
1, 11303, Note_off_c, 0, 42, 64
1, 11304, Note_on_c, 0, 38, 55
1, 11304, Note_on_c, 0, 42, 15
1, 11311, Note_off_c, 0, 36, 64
1, 11328, Note_on_c, 0, 36, 61
1, 11328, Note_off_c, 0, 38, 64
1, 11328, Note_on_c, 0, 38, 127
1, 11328, Note_off_c, 0, 42, 64
1, 11328, Note_on_c, 0, 42, 2
1, 11352, Note_off_c, 0, 36, 64
1, 11352, Note_on_c, 0, 36, 95
1, 11352, Note_off_c, 0, 42, 64
1, 11352, Note_on_c, 0, 42, 14
1, 11368, Note_off_c, 0, 38, 64
1, 11376, Note_on_c, 0, 38, 69
1, 11376, Note_off_c, 0, 42, 64
1, 11376, Note_on_c, 0, 42, 18
1, 11388, Note_off_c, 0, 36, 64
1, 11397, Note_off_c, 0, 38, 64
1, 11397, Note_off_c, 0, 42, 64
1, 11400, Note_on_c, 0, 38, 53
1, 11400, Note_on_c, 0, 42, 14
1, 11423, Note_off_c, 0, 42, 64
1, 11424, Note_on_c, 0, 36, 91
1, 11424, Note_on_c, 0, 42, 3
1, 11429, Note_off_c, 0, 38, 64
1, 11453, Note_off_c, 0, 36, 64
1, 11453, Note_off_c, 0, 42, 64
1, 11456, Note_on_c, 0, 36, 94
1, 11456, Note_on_c, 0, 42, 16
1, 11472, Note_on_c, 0, 38, 54
1, 11472, Note_off_c, 0, 42, 64
1, 11472, Note_on_c, 0, 42, 14
1, 11500, Note_off_c, 0, 42, 64
1, 11503, Note_off_c, 0, 36, 64
1, 11504, Note_on_c, 0, 42, 17
1, 11514, Note_off_c, 0, 38, 64
1, 11520, Note_off_c, 0, 42, 64
1, 11520, Note_on_c, 0, 42, 26
1, 11549, Note_off_c, 0, 42, 64
1, 11552, Note_on_c, 0, 42, 36
1, 11568, Note_on_c, 0, 38, 53
1, 11568, Note_off_c, 0, 42, 64
1, 11568, Note_on_c, 0, 42, 52
1, 11587, Note_off_c, 0, 38, 64
1, 11592, Note_on_c, 0, 38, 52
1, 11592, Note_off_c, 0, 42, 64
1, 11592, Note_on_c, 0, 42, 67
1, 11620, Note_off_c, 0, 38, 64
1, 11644, Note_off_c, 0, 42, 64
1, 11648, Note_on_c, 0, 42, 16
1, 11664, Note_on_c, 0, 38, 53
1, 11664, Note_off_c, 0, 42, 64
1, 11664, Note_on_c, 0, 42, 12
1, 11679, Note_off_c, 0, 38, 64
1, 11688, Note_off_c, 0, 42, 64
1, 11688, Note_on_c, 0, 42, 15
1, 11708, Note_off_c, 0, 42, 64
1, 11712, Note_on_c, 0, 42, 15
1, 11729, Note_off_c, 0, 42, 64
1, 11744, Note_on_c, 0, 42, 15
1, 11760, Note_on_c, 0, 38, 65
1, 11760, Note_off_c, 0, 42, 64
1, 11760, Note_on_c, 0, 42, 15
1, 11778, Note_off_c, 0, 38, 64
1, 11780, Note_off_c, 0, 42, 64
1, 11784, Note_on_c, 0, 38, 53
1, 11784, Note_on_c, 0, 42, 13
1, 11808, Note_off_c, 0, 42, 64
1, 11808, Note_on_c, 0, 42, 13
1, 11813, Note_off_c, 0, 38, 64
1, 11836, Note_off_c, 0, 42, 64
1, 11840, Note_on_c, 0, 42, 16
1, 11856, Note_on_c, 0, 38, 59
1, 11856, Note_off_c, 0, 42, 64
1, 11856, Note_on_c, 0, 42, 12
1, 11871, Note_off_c, 0, 38, 64
1, 11884, Note_off_c, 0, 42, 64
1, 11888, Note_on_c, 0, 42, 17
1, 11904, Note_off_c, 0, 42, 64
1, 11904, Note_on_c, 0, 42, 15
1, 11919, Note_off_c, 0, 42, 64
1, 11936, Note_on_c, 0, 42, 15
1, 11952, Note_on_c, 0, 38, 57
1, 11952, Note_off_c, 0, 42, 64
1, 11952, Note_on_c, 0, 42, 16
1, 11967, Note_off_c, 0, 38, 64
1, 11976, Note_on_c, 0, 38, 58
1, 11976, Note_off_c, 0, 42, 64
1, 11976, Note_on_c, 0, 42, 13
1, 11999, Note_off_c, 0, 42, 64
1, 12000, Note_on_c, 0, 42, 14
1, 12005, Note_off_c, 0, 38, 64
1, 12029, Note_off_c, 0, 42, 64
1, 12032, Note_on_c, 0, 42, 16
1, 12048, Note_on_c, 0, 38, 53
1, 12048, Note_off_c, 0, 42, 64
1, 12048, Note_on_c, 0, 42, 12
1, 12063, Note_off_c, 0, 38, 64
1, 12072, Note_off_c, 0, 42, 64
1, 12072, Note_on_c, 0, 42, 15
1, 12092, Note_off_c, 0, 42, 64
1, 12096, Note_on_c, 0, 42, 14
1, 12125, Note_off_c, 0, 42, 64
1, 12128, Note_on_c, 0, 42, 14
1, 12144, Note_on_c, 0, 38, 50
1, 12144, Note_off_c, 0, 42, 64
1, 12144, Note_on_c, 0, 42, 18
1, 12165, Note_off_c, 0, 38, 64
1, 12165, Note_off_c, 0, 42, 64
1, 12168, Note_on_c, 0, 38, 53
1, 12168, Note_on_c, 0, 42, 14
1, 12191, Note_off_c, 0, 42, 64
1, 12192, Note_on_c, 0, 42, 14
1, 12197, Note_off_c, 0, 38, 64
1, 12221, Note_off_c, 0, 42, 64
1, 12224, Note_on_c, 0, 42, 16
1, 12240, Note_on_c, 0, 38, 52
1, 12240, Note_off_c, 0, 42, 64
1, 12240, Note_on_c, 0, 42, 13
1, 12256, Note_off_c, 0, 38, 64
1, 12268, Note_off_c, 0, 42, 64
1, 12272, Note_on_c, 0, 42, 17
1, 12287, Note_off_c, 0, 42, 64
1, 12288, Note_on_c, 0, 42, 29
1, 12312, Note_on_c, 0, 38, 62
1, 12312, Note_off_c, 0, 42, 64
1, 12312, Note_on_c, 0, 42, 45
1, 12328, Note_off_c, 0, 38, 64
1, 12335, Note_off_c, 0, 42, 64
1, 12336, Note_on_c, 0, 42, 55
1, 12360, Note_off_c, 0, 42, 64
1, 12360, Note_on_c, 0, 42, 75
1, 12412, Note_off_c, 0, 42, 64
1, 12416, Note_on_c, 0, 42, 24
1, 12432, Note_off_c, 0, 42, 64
1, 12432, Note_on_c, 0, 42, 20
1, 12455, Note_off_c, 0, 42, 64
1, 12456, Note_on_c, 0, 38, 56
1, 12456, Note_on_c, 0, 42, 19
1, 12480, Note_off_c, 0, 42, 64
1, 12480, Note_on_c, 0, 42, 23
1, 12485, Note_off_c, 0, 38, 64
1, 12509, Note_off_c, 0, 42, 64
1, 12512, Note_on_c, 0, 42, 22
1, 12528, Note_on_c, 0, 38, 63
1, 12528, Note_off_c, 0, 42, 64
1, 12528, Note_on_c, 0, 42, 23
1, 12546, Note_off_c, 0, 38, 64
1, 12548, Note_off_c, 0, 42, 64
1, 12552, Note_on_c, 0, 42, 22
1, 12576, Note_off_c, 0, 42, 64
1, 12576, Note_on_c, 0, 42, 20
1, 12604, Note_off_c, 0, 42, 64
1, 12608, Note_on_c, 0, 42, 24
1, 12624, Note_off_c, 0, 42, 64
1, 12624, Note_on_c, 0, 42, 20
1, 12652, Note_off_c, 0, 42, 64
1, 12656, Note_on_c, 0, 42, 25
1, 12672, Note_off_c, 0, 42, 64
1, 12672, Note_on_c, 0, 42, 24
1, 12696, Note_on_c, 0, 38, 59
1, 12696, Note_off_c, 0, 42, 64
1, 12696, Note_on_c, 0, 42, 21
1, 12719, Note_off_c, 0, 42, 64
1, 12720, Note_on_c, 0, 42, 23
1, 12744, Note_off_c, 0, 42, 64
1, 12744, Note_on_c, 0, 42, 21
1, 12767, Note_off_c, 0, 42, 64
1, 12768, Note_on_c, 0, 42, 20
1, 12772, Note_off_c, 0, 38, 64
1, 12797, Note_off_c, 0, 42, 64
1, 12800, Note_on_c, 0, 42, 24
1, 12816, Note_off_c, 0, 42, 64
1, 12816, Note_on_c, 0, 42, 20
1, 12840, Note_on_c, 0, 38, 57
1, 12840, Note_off_c, 0, 42, 64
1, 12840, Note_on_c, 0, 42, 21
1, 12863, Note_off_c, 0, 42, 64
1, 12864, Note_on_c, 0, 42, 20
1, 12893, Note_off_c, 0, 42, 64
1, 12896, Note_on_c, 0, 42, 21
1, 12912, Note_off_c, 0, 38, 64
1, 12912, Note_on_c, 0, 38, 58
1, 12912, Note_off_c, 0, 42, 64
1, 12912, Note_on_c, 0, 42, 26
1, 12933, Note_off_c, 0, 42, 64
1, 12936, Note_on_c, 0, 42, 22
1, 12960, Note_off_c, 0, 42, 64
1, 12960, Note_on_c, 0, 42, 21
1, 12967, Note_off_c, 0, 38, 64
1, 12988, Note_off_c, 0, 42, 64
1, 12992, Note_on_c, 0, 42, 24
1, 13008, Note_on_c, 0, 38, 67
1, 13008, Note_off_c, 0, 42, 64
1, 13008, Note_on_c, 0, 42, 22
1, 13036, Note_off_c, 0, 42, 64
1, 13040, Note_on_c, 0, 42, 25
1, 13047, Note_off_c, 0, 38, 64
1, 13056, Note_on_c, 0, 36, 127
1, 13056, Note_off_c, 0, 42, 64
1, 13056, Note_on_c, 0, 42, 1
1, 13104, Note_off_c, 0, 36, 64
1, 13104, Note_on_c, 0, 36, 100
1, 13104, Note_on_c, 0, 38, 58
1, 13104, Note_off_c, 0, 42, 64
1, 13104, Note_on_c, 0, 42, 70
1, 13115, Note_off_c, 0, 38, 64
1, 13135, Note_off_c, 0, 36, 64
1, 13151, Note_off_c, 0, 42, 64
1, 13152, Note_on_c, 0, 36, 84
1, 13152, Note_on_c, 0, 38, 64
1, 13152, Note_on_c, 0, 42, 42
1, 13178, Note_off_c, 0, 38, 64
1, 13200, Note_off_c, 0, 36, 64
1, 13200, Note_on_c, 0, 36, 65
1, 13200, Note_on_c, 0, 38, 60
1, 13200, Note_off_c, 0, 42, 64
1, 13200, Note_on_c, 0, 42, 55
1, 13224, Note_off_c, 0, 42, 64
1, 13224, Note_on_c, 0, 42, 12
1, 13229, Note_off_c, 0, 36, 64
1, 13247, Note_off_c, 0, 42, 64
1, 13248, Note_on_c, 0, 36, 93
1, 13248, Note_on_c, 0, 42, 1
1, 13255, Note_off_c, 0, 38, 64
1, 13296, Note_off_c, 0, 36, 64
1, 13296, Note_on_c, 0, 36, 94
1, 13296, Note_on_c, 0, 38, 57
1, 13296, Note_off_c, 0, 42, 64
1, 13296, Note_on_c, 0, 42, 69
1, 13306, Note_off_c, 0, 38, 64
1, 13328, Note_off_c, 0, 36, 64
1, 13336, Note_off_c, 0, 42, 64
1, 13344, Note_on_c, 0, 36, 60
1, 13344, Note_on_c, 0, 38, 73
1, 13344, Note_on_c, 0, 42, 42
1, 13371, Note_off_c, 0, 38, 64
1, 13392, Note_off_c, 0, 36, 64
1, 13392, Note_on_c, 0, 36, 67
1, 13392, Note_on_c, 0, 38, 74
1, 13392, Note_off_c, 0, 42, 64
1, 13392, Note_on_c, 0, 42, 54
1, 13412, Note_off_c, 0, 38, 64
1, 13421, Note_off_c, 0, 36, 64
1, 13440, Note_on_c, 0, 36, 126
1, 13440, Note_off_c, 0, 42, 64
1, 13440, Note_on_c, 0, 42, 1
1, 13488, Note_off_c, 0, 36, 64
1, 13488, Note_on_c, 0, 36, 100
1, 13488, Note_on_c, 0, 38, 58
1, 13488, Note_off_c, 0, 42, 64
1, 13488, Note_on_c, 0, 42, 70
1, 13499, Note_off_c, 0, 38, 64
1, 13519, Note_off_c, 0, 36, 64
1, 13534, Note_off_c, 0, 42, 64
1, 13536, Note_on_c, 0, 36, 85
1, 13536, Note_on_c, 0, 38, 64
1, 13536, Note_on_c, 0, 42, 46
1, 13563, Note_off_c, 0, 38, 64
1, 13584, Note_off_c, 0, 36, 64
1, 13584, Note_on_c, 0, 36, 65
1, 13584, Note_on_c, 0, 38, 61
1, 13584, Note_off_c, 0, 42, 64
1, 13584, Note_on_c, 0, 42, 55
1, 13608, Note_off_c, 0, 42, 64
1, 13608, Note_on_c, 0, 42, 12
1, 13613, Note_off_c, 0, 36, 64
1, 13631, Note_off_c, 0, 42, 64
1, 13632, Note_on_c, 0, 36, 94
1, 13632, Note_on_c, 0, 42, 1
1, 13639, Note_off_c, 0, 38, 64
1, 13680, Note_off_c, 0, 36, 64
1, 13680, Note_on_c, 0, 36, 89
1, 13680, Note_on_c, 0, 38, 83
1, 13680, Note_off_c, 0, 42, 64
1, 13680, Note_on_c, 0, 42, 61
1, 13706, Note_off_c, 0, 38, 64
1, 13712, Note_off_c, 0, 36, 64
1, 13722, Note_off_c, 0, 42, 64
1, 13728, Note_on_c, 0, 36, 60
1, 13728, Note_on_c, 0, 38, 74
1, 13728, Note_on_c, 0, 42, 42
1, 13754, Note_off_c, 0, 38, 64
1, 13776, Note_off_c, 0, 36, 64
1, 13776, Note_on_c, 0, 36, 67
1, 13776, Note_on_c, 0, 38, 75
1, 13776, Note_off_c, 0, 42, 64
1, 13776, Note_on_c, 0, 42, 54
1, 13796, Note_off_c, 0, 38, 64
1, 13805, Note_off_c, 0, 36, 64
1, 13823, Note_off_c, 0, 42, 64
1, 13872, Note_on_c, 0, 36, 56
1, 13872, Note_on_c, 0, 38, 58
1, 13872, Note_on_c, 0, 42, 70
1, 13883, Note_off_c, 0, 38, 64
1, 13906, Note_off_c, 0, 36, 64
1, 13914, Note_off_c, 0, 42, 64
1, 13920, Note_on_c, 0, 38, 64
1, 13920, Note_on_c, 0, 42, 62
1, 13950, Note_off_c, 0, 38, 64
1, 13968, Note_on_c, 0, 38, 62
1, 13968, Note_off_c, 0, 42, 64
1, 13968, Note_on_c, 0, 42, 55
1, 13991, Note_off_c, 0, 42, 64
1, 13992, Note_on_c, 0, 42, 12
1, 14018, Note_off_c, 0, 38, 64
1, 14064, Note_on_c, 0, 36, 70
1, 14064, Note_on_c, 0, 38, 57
1, 14064, Note_off_c, 0, 42, 64
1, 14064, Note_on_c, 0, 42, 69
1, 14075, Note_off_c, 0, 38, 64
1, 14098, Note_off_c, 0, 36, 64
1, 14106, Note_off_c, 0, 42, 64
1, 14112, Note_on_c, 0, 38, 74
1, 14112, Note_on_c, 0, 42, 61
1, 14142, Note_off_c, 0, 38, 64
1, 14160, Note_on_c, 0, 38, 76
1, 14160, Note_off_c, 0, 42, 64
1, 14160, Note_on_c, 0, 42, 54
1, 14180, Note_off_c, 0, 38, 64
1, 14256, Note_on_c, 0, 36, 57
1, 14256, Note_on_c, 0, 38, 58
1, 14256, Note_off_c, 0, 42, 64
1, 14256, Note_on_c, 0, 42, 70
1, 14267, Note_off_c, 0, 38, 64
1, 14290, Note_off_c, 0, 36, 64
1, 14298, Note_off_c, 0, 42, 64
1, 14304, Note_on_c, 0, 38, 64
1, 14304, Note_on_c, 0, 42, 65
1, 14332, Note_off_c, 0, 42, 64
1, 14334, Note_off_c, 0, 38, 64
1, 14352, Note_on_c, 0, 38, 43
1, 14352, Note_on_c, 0, 42, 68
1, 14371, Note_off_c, 0, 38, 64
1, 14375, Note_off_c, 0, 42, 64
1, 14376, Note_on_c, 0, 38, 38
1, 14376, Note_on_c, 0, 42, 22
1, 14404, Note_off_c, 0, 38, 64
1, 14448, Note_on_c, 0, 36, 65
1, 14448, Note_on_c, 0, 38, 38
1, 14448, Note_off_c, 0, 42, 64
1, 14448, Note_on_c, 0, 42, 59
1, 14478, Note_off_c, 0, 36, 64
1, 14478, Note_off_c, 0, 38, 64
1, 14491, Note_off_c, 0, 42, 64
1, 14496, Note_on_c, 0, 38, 40
1, 14496, Note_on_c, 0, 42, 87
1, 14518, Note_off_c, 0, 38, 64
1, 14544, Note_on_c, 0, 38, 35
1, 14544, Note_off_c, 0, 42, 64
1, 14544, Note_on_c, 0, 42, 68
1, 14564, Note_off_c, 0, 38, 64
1, 14591, Note_off_c, 0, 42, 64
1, 14592, Note_on_c, 0, 36, 62
1, 14592, Note_on_c, 0, 42, 3
1, 14623, Note_off_c, 0, 36, 64
1, 14623, Note_off_c, 0, 42, 64
1, 14624, Note_on_c, 0, 36, 69
1, 14624, Note_on_c, 0, 42, 9
1, 14640, Note_off_c, 0, 42, 64
1, 14640, Note_on_c, 0, 42, 25
1, 14664, Note_on_c, 0, 38, 41
1, 14664, Note_off_c, 0, 42, 64
1, 14664, Note_on_c, 0, 42, 11
1, 14675, Note_off_c, 0, 38, 64
1, 14684, Note_off_c, 0, 36, 64
1, 14685, Note_off_c, 0, 42, 64
1, 14688, Note_on_c, 0, 36, 89
1, 14688, Note_on_c, 0, 42, 1
1, 14736, Note_off_c, 0, 36, 64
1, 14736, Note_on_c, 0, 36, 67
1, 14736, Note_on_c, 0, 38, 33
1, 14736, Note_off_c, 0, 42, 64
1, 14736, Note_on_c, 0, 42, 32
1, 14758, Note_off_c, 0, 38, 64
1, 14760, Note_on_c, 0, 38, 30
1, 14760, Note_off_c, 0, 42, 64
1, 14760, Note_on_c, 0, 42, 11
1, 14772, Note_off_c, 0, 38, 64
1, 14780, Note_off_c, 0, 42, 64
1, 14783, Note_off_c, 0, 36, 64
1, 14784, Note_on_c, 0, 36, 75
1, 14784, Note_on_c, 0, 42, 7
1, 14813, Note_off_c, 0, 36, 64
1, 14813, Note_off_c, 0, 42, 64
1, 14816, Note_on_c, 0, 36, 69
1, 14816, Note_on_c, 0, 42, 9
1, 14832, Note_on_c, 0, 38, 33
1, 14832, Note_off_c, 0, 42, 64
1, 14832, Note_on_c, 0, 42, 23
1, 14843, Note_off_c, 0, 38, 64
1, 14856, Note_on_c, 0, 38, 38
1, 14856, Note_off_c, 0, 42, 64
1, 14856, Note_on_c, 0, 42, 1
1, 14867, Note_off_c, 0, 38, 64
1, 14875, Note_off_c, 0, 36, 64
1, 14877, Note_off_c, 0, 42, 64
1, 14880, Note_on_c, 0, 36, 70
1, 14880, Note_on_c, 0, 42, 1
1, 14910, Note_off_c, 0, 36, 64
1, 14910, Note_off_c, 0, 42, 64
1, 14912, Note_on_c, 0, 36, 70
1, 14912, Note_on_c, 0, 42, 1
1, 14928, Note_off_c, 0, 42, 64
1, 14928, Note_on_c, 0, 42, 30
1, 14956, Note_off_c, 0, 42, 64
1, 14960, Note_on_c, 0, 42, 1
1, 14970, Note_off_c, 0, 36, 64
1, 14976, Note_on_c, 0, 36, 64
1, 14976, Note_off_c, 0, 42, 64
1, 14976, Note_on_c, 0, 42, 3
1, 15007, Note_off_c, 0, 36, 64
1, 15007, Note_off_c, 0, 42, 64
1, 15008, Note_on_c, 0, 36, 69
1, 15008, Note_on_c, 0, 42, 9
1, 15024, Note_off_c, 0, 42, 64
1, 15024, Note_on_c, 0, 42, 25
1, 15048, Note_on_c, 0, 38, 41
1, 15048, Note_off_c, 0, 42, 64
1, 15048, Note_on_c, 0, 42, 11
1, 15059, Note_off_c, 0, 38, 64
1, 15068, Note_off_c, 0, 36, 64
1, 15069, Note_off_c, 0, 42, 64
1, 15072, Note_on_c, 0, 36, 89
1, 15072, Note_on_c, 0, 42, 1
1, 15120, Note_off_c, 0, 36, 64
1, 15120, Note_on_c, 0, 36, 67
1, 15120, Note_on_c, 0, 38, 33
1, 15120, Note_off_c, 0, 42, 64
1, 15120, Note_on_c, 0, 42, 32
1, 15142, Note_off_c, 0, 38, 64
1, 15144, Note_on_c, 0, 38, 30
1, 15144, Note_off_c, 0, 42, 64
1, 15144, Note_on_c, 0, 42, 11
1, 15156, Note_off_c, 0, 38, 64
1, 15164, Note_off_c, 0, 42, 64
1, 15167, Note_off_c, 0, 36, 64
1, 15168, Note_on_c, 0, 36, 75
1, 15168, Note_on_c, 0, 42, 7
1, 15197, Note_off_c, 0, 36, 64
1, 15197, Note_off_c, 0, 42, 64
1, 15200, Note_on_c, 0, 36, 69
1, 15200, Note_on_c, 0, 42, 9
1, 15216, Note_on_c, 0, 38, 33
1, 15216, Note_off_c, 0, 42, 64
1, 15216, Note_on_c, 0, 42, 23
1, 15227, Note_off_c, 0, 38, 64
1, 15240, Note_on_c, 0, 38, 38
1, 15240, Note_off_c, 0, 42, 64
1, 15240, Note_on_c, 0, 42, 1
1, 15251, Note_off_c, 0, 38, 64
1, 15259, Note_off_c, 0, 36, 64
1, 15260, Note_off_c, 0, 42, 64
1, 15264, Note_on_c, 0, 36, 64
1, 15264, Note_on_c, 0, 42, 1
1, 15288, Note_off_c, 0, 36, 64
1, 15288, Note_on_c, 0, 36, 71
1, 15288, Note_off_c, 0, 42, 64
1, 15288, Note_on_c, 0, 42, 1
1, 15309, Note_off_c, 0, 42, 64
1, 15312, Note_on_c, 0, 42, 30
1, 15340, Note_off_c, 0, 42, 64
1, 15344, Note_on_c, 0, 42, 1
1, 15347, Note_off_c, 0, 36, 64
1, 15360, Note_on_c, 0, 38, 44
1, 15360, Note_off_c, 0, 42, 64
1, 15360, Note_on_c, 0, 42, 5
1, 15371, Note_off_c, 0, 38, 64
1, 15377, Note_off_c, 0, 42, 64
1, 15384, Note_on_c, 0, 38, 30
1, 15384, Note_on_c, 0, 42, 8
1, 15395, Note_off_c, 0, 38, 64
1, 15404, Note_off_c, 0, 42, 64
1, 15408, Note_on_c, 0, 38, 38
1, 15408, Note_on_c, 0, 42, 27
1, 15421, Note_off_c, 0, 38, 64
1, 15432, Note_on_c, 0, 38, 43
1, 15432, Note_off_c, 0, 42, 64
1, 15432, Note_on_c, 0, 42, 11
1, 15443, Note_off_c, 0, 38, 64
1, 15486, Note_off_c, 0, 42, 64
1, 15504, Note_on_c, 0, 38, 35
1, 15504, Note_on_c, 0, 42, 32
1, 15528, Note_off_c, 0, 38, 64
1, 15528, Note_on_c, 0, 38, 31
1, 15528, Note_off_c, 0, 42, 64
1, 15528, Note_on_c, 0, 42, 11
1, 15540, Note_off_c, 0, 38, 64
1, 15548, Note_off_c, 0, 42, 64
1, 15552, Note_on_c, 0, 42, 8
1, 15576, Note_on_c, 0, 38, 37
1, 15576, Note_off_c, 0, 42, 64
1, 15576, Note_on_c, 0, 42, 8
1, 15587, Note_off_c, 0, 38, 64
1, 15596, Note_off_c, 0, 42, 64
1, 15600, Note_on_c, 0, 38, 37
1, 15600, Note_on_c, 0, 42, 26
1, 15612, Note_off_c, 0, 38, 64
1, 15624, Note_on_c, 0, 38, 39
1, 15624, Note_off_c, 0, 42, 64
1, 15624, Note_on_c, 0, 42, 1
1, 15635, Note_off_c, 0, 38, 64
1, 15672, Note_off_c, 0, 42, 64
1, 15672, Note_on_c, 0, 42, 1
1, 15692, Note_off_c, 0, 42, 64
1, 15696, Note_on_c, 0, 42, 28
1, 15720, Note_off_c, 0, 42, 64
1, 15720, Note_on_c, 0, 42, 1
1, 15740, Note_off_c, 0, 42, 64
1, 15744, Note_on_c, 0, 38, 31
1, 15744, Note_on_c, 0, 42, 5
1, 15755, Note_off_c, 0, 38, 64
1, 15768, Note_on_c, 0, 38, 30
1, 15768, Note_off_c, 0, 42, 64
1, 15768, Note_on_c, 0, 42, 8
1, 15779, Note_off_c, 0, 38, 64
1, 15788, Note_off_c, 0, 42, 64
1, 15792, Note_on_c, 0, 38, 38
1, 15792, Note_on_c, 0, 42, 27
1, 15805, Note_off_c, 0, 38, 64
1, 15816, Note_on_c, 0, 38, 43
1, 15816, Note_off_c, 0, 42, 64
1, 15816, Note_on_c, 0, 42, 11
1, 15827, Note_off_c, 0, 38, 64
1, 15870, Note_off_c, 0, 42, 64
1, 15888, Note_on_c, 0, 38, 35
1, 15888, Note_on_c, 0, 42, 32
1, 15912, Note_off_c, 0, 38, 64
1, 15912, Note_on_c, 0, 38, 31
1, 15912, Note_off_c, 0, 42, 64
1, 15912, Note_on_c, 0, 42, 11
1, 15924, Note_off_c, 0, 38, 64
1, 15932, Note_off_c, 0, 42, 64
1, 15936, Note_on_c, 0, 42, 8
1, 15960, Note_on_c, 0, 38, 37
1, 15960, Note_off_c, 0, 42, 64
1, 15960, Note_on_c, 0, 42, 8
1, 15971, Note_off_c, 0, 38, 64
1, 15980, Note_off_c, 0, 42, 64
1, 15984, Note_on_c, 0, 38, 37
1, 15984, Note_on_c, 0, 42, 26
1, 15996, Note_off_c, 0, 38, 64
1, 16008, Note_on_c, 0, 38, 39
1, 16008, Note_off_c, 0, 42, 64
1, 16008, Note_on_c, 0, 42, 1
1, 16019, Note_off_c, 0, 38, 64
1, 16028, Note_off_c, 0, 42, 64
1, 16032, Note_on_c, 0, 42, 1
1, 16056, Note_on_c, 0, 38, 42
1, 16056, Note_off_c, 0, 42, 64
1, 16056, Note_on_c, 0, 42, 1
1, 16075, Note_off_c, 0, 42, 64
1, 16080, Note_on_c, 0, 42, 28
1, 16104, Note_off_c, 0, 42, 64
1, 16104, Note_on_c, 0, 42, 1
1, 16125, Note_off_c, 0, 42, 64
1, 16128, Note_on_c, 0, 36, 76
1, 16128, Note_on_c, 0, 42, 14
1, 16131, Note_off_c, 0, 38, 64
1, 16151, Note_off_c, 0, 42, 64
1, 16174, Note_off_c, 0, 36, 64
1, 16176, Note_on_c, 0, 36, 110
1, 16176, Note_on_c, 0, 42, 63
1, 16224, Note_off_c, 0, 36, 64
1, 16224, Note_on_c, 0, 36, 70
1, 16224, Note_on_c, 0, 38, 32
1, 16224, Note_off_c, 0, 42, 64
1, 16224, Note_on_c, 0, 42, 90
1, 16246, Note_off_c, 0, 38, 64
1, 16272, Note_off_c, 0, 36, 64
1, 16272, Note_on_c, 0, 36, 108
1, 16272, Note_off_c, 0, 42, 64
1, 16272, Note_on_c, 0, 42, 50
1, 16296, Note_off_c, 0, 42, 64
1, 16296, Note_on_c, 0, 42, 31
1, 16320, Note_off_c, 0, 36, 64
1, 16320, Note_on_c, 0, 36, 103
1, 16320, Note_off_c, 0, 42, 64
1, 16320, Note_on_c, 0, 42, 28
1, 16349, Note_off_c, 0, 42, 64
1, 16368, Note_off_c, 0, 36, 64
1, 16368, Note_on_c, 0, 36, 104
1, 16368, Note_on_c, 0, 42, 70
1, 16380, Note_off_c, 0, 42, 64
1, 16392, Note_on_c, 0, 42, 16
1, 16402, Note_off_c, 0, 36, 64
1, 16416, Note_on_c, 0, 36, 84
1, 16416, Note_on_c, 0, 38, 56
1, 16416, Note_off_c, 0, 42, 64
1, 16416, Note_on_c, 0, 42, 44
1, 16440, Note_off_c, 0, 38, 64
1, 16464, Note_off_c, 0, 36, 64
1, 16464, Note_on_c, 0, 36, 91
1, 16464, Note_off_c, 0, 42, 64
1, 16464, Note_on_c, 0, 42, 43
1, 16510, Note_off_c, 0, 36, 64
1, 16512, Note_on_c, 0, 36, 73
1, 16517, Note_off_c, 0, 42, 64
1, 16560, Note_off_c, 0, 36, 64
1, 16560, Note_on_c, 0, 36, 94
1, 16560, Note_on_c, 0, 42, 52
1, 16608, Note_off_c, 0, 36, 64
1, 16608, Note_on_c, 0, 36, 65
1, 16608, Note_on_c, 0, 38, 39
1, 16608, Note_off_c, 0, 42, 64
1, 16608, Note_on_c, 0, 42, 44
1, 16632, Note_off_c, 0, 38, 64
1, 16656, Note_off_c, 0, 36, 64
1, 16656, Note_on_c, 0, 36, 95
1, 16656, Note_off_c, 0, 42, 64
1, 16656, Note_on_c, 0, 42, 41
1, 16680, Note_off_c, 0, 42, 64
1, 16680, Note_on_c, 0, 42, 22
1, 16704, Note_off_c, 0, 36, 64
1, 16704, Note_on_c, 0, 36, 100
1, 16704, Note_off_c, 0, 42, 64
1, 16704, Note_on_c, 0, 42, 12
1, 16744, Note_off_c, 0, 42, 64
1, 16752, Note_off_c, 0, 36, 64
1, 16752, Note_on_c, 0, 36, 90
1, 16752, Note_on_c, 0, 42, 53
1, 16800, Note_off_c, 0, 36, 64
1, 16800, Note_on_c, 0, 36, 84
1, 16800, Note_on_c, 0, 38, 55
1, 16800, Note_off_c, 0, 42, 64
1, 16800, Note_on_c, 0, 42, 43
1, 16824, Note_off_c, 0, 38, 64
1, 16847, Note_off_c, 0, 36, 64
1, 16847, Note_off_c, 0, 42, 64
1, 16848, Note_on_c, 0, 36, 91
1, 16848, Note_on_c, 0, 42, 44
1, 16872, Note_on_c, 0, 38, 52
1, 16872, Note_off_c, 0, 42, 64
1, 16872, Note_on_c, 0, 42, 14
1, 16902, Note_off_c, 0, 38, 64
1, 16920, Note_off_c, 0, 36, 64
1, 16943, Note_off_c, 0, 42, 64
1, 16944, Note_on_c, 0, 42, 57
1, 16992, Note_off_c, 0, 42, 64
1, 16992, Note_on_c, 0, 42, 49
1, 17040, Note_off_c, 0, 42, 64
1, 17040, Note_on_c, 0, 42, 46
1, 17063, Note_off_c, 0, 42, 64
1, 17064, Note_on_c, 0, 42, 23
1, 17136, Note_off_c, 0, 42, 64
1, 17136, Note_on_c, 0, 42, 58
1, 17160, Note_off_c, 0, 42, 64
1, 17160, Note_on_c, 0, 42, 17
1, 17184, Note_off_c, 0, 42, 64
1, 17184, Note_on_c, 0, 42, 49
1, 17231, Note_off_c, 0, 42, 64
1, 17232, Note_on_c, 0, 42, 48
1, 17328, Note_off_c, 0, 42, 64
1, 17328, Note_on_c, 0, 42, 57
1, 17375, Note_off_c, 0, 42, 64
1, 17376, Note_on_c, 0, 42, 49
1, 17424, Note_off_c, 0, 42, 64
1, 17424, Note_on_c, 0, 42, 46
1, 17448, Note_off_c, 0, 42, 64
1, 17448, Note_on_c, 0, 42, 23
1, 17520, Note_off_c, 0, 42, 64
1, 17520, Note_on_c, 0, 42, 58
1, 17543, Note_off_c, 0, 42, 64
1, 17544, Note_on_c, 0, 42, 16
1, 17568, Note_off_c, 0, 42, 64
1, 17568, Note_on_c, 0, 42, 49
1, 17616, Note_off_c, 0, 42, 64
1, 17616, Note_on_c, 0, 42, 49
1, 17640, Note_on_c, 0, 38, 53
1, 17640, Note_off_c, 0, 42, 64
1, 17640, Note_on_c, 0, 42, 15
1, 17662, Note_off_c, 0, 42, 64
1, 17664, Note_on_c, 0, 36, 54
1, 17664, Note_on_c, 0, 42, 25
1, 17668, Note_off_c, 0, 38, 64
1, 17712, Note_off_c, 0, 36, 64
1, 17712, Note_on_c, 0, 36, 81
1, 17712, Note_off_c, 0, 42, 64
1, 17712, Note_on_c, 0, 42, 66
1, 17756, Note_off_c, 0, 36, 64
1, 17756, Note_off_c, 0, 42, 64
1, 17760, Note_on_c, 0, 36, 62
1, 17760, Note_on_c, 0, 38, 43
1, 17760, Note_on_c, 0, 42, 24
1, 17808, Note_off_c, 0, 36, 64
1, 17808, Note_on_c, 0, 36, 63
1, 17808, Note_off_c, 0, 38, 64
1, 17808, Note_off_c, 0, 42, 64
1, 17808, Note_on_c, 0, 42, 56
1, 17839, Note_off_c, 0, 42, 64
1, 17854, Note_off_c, 0, 36, 64
1, 17856, Note_on_c, 0, 36, 77
1, 17904, Note_off_c, 0, 36, 64
1, 17904, Note_on_c, 0, 36, 82
1, 17904, Note_on_c, 0, 42, 58
1, 17952, Note_off_c, 0, 36, 64
1, 17952, Note_on_c, 0, 36, 73
1, 17952, Note_on_c, 0, 38, 38
1, 17952, Note_off_c, 0, 42, 64
1, 17952, Note_on_c, 0, 42, 9
1, 18000, Note_off_c, 0, 36, 64
1, 18000, Note_on_c, 0, 36, 64
1, 18000, Note_off_c, 0, 38, 64
1, 18000, Note_off_c, 0, 42, 64
1, 18000, Note_on_c, 0, 42, 56
1, 18046, Note_off_c, 0, 36, 64
1, 18046, Note_off_c, 0, 42, 64
1, 18048, Note_on_c, 0, 36, 57
1, 18048, Note_on_c, 0, 42, 1
1, 18076, Note_off_c, 0, 42, 64
1, 18096, Note_off_c, 0, 36, 64
1, 18096, Note_on_c, 0, 36, 84
1, 18096, Note_on_c, 0, 42, 58
1, 18142, Note_off_c, 0, 36, 64
1, 18142, Note_off_c, 0, 42, 64
1, 18144, Note_on_c, 0, 36, 62
1, 18144, Note_on_c, 0, 38, 58
1, 18144, Note_on_c, 0, 42, 9
1, 18181, Note_off_c, 0, 38, 64
1, 18192, Note_off_c, 0, 36, 64
1, 18192, Note_on_c, 0, 36, 63
1, 18192, Note_off_c, 0, 42, 64
1, 18192, Note_on_c, 0, 42, 56
1, 18223, Note_off_c, 0, 42, 64
1, 18238, Note_off_c, 0, 36, 64
1, 18240, Note_on_c, 0, 36, 77
1, 18288, Note_off_c, 0, 36, 64
1, 18288, Note_on_c, 0, 36, 82
1, 18288, Note_on_c, 0, 42, 58
1, 18336, Note_off_c, 0, 36, 64
1, 18336, Note_on_c, 0, 36, 73
1, 18336, Note_on_c, 0, 38, 47
1, 18336, Note_off_c, 0, 42, 64
1, 18336, Note_on_c, 0, 42, 9
1, 18373, Note_off_c, 0, 38, 64
1, 18384, Note_off_c, 0, 36, 64
1, 18384, Note_on_c, 0, 36, 64
1, 18384, Note_off_c, 0, 42, 64
1, 18384, Note_on_c, 0, 42, 56
1, 18426, Note_off_c, 0, 42, 64
1, 18430, Note_off_c, 0, 36, 64
1, 18432, Note_on_c, 0, 36, 80
1, 18432, Note_on_c, 0, 42, 1
1, 18452, Note_off_c, 0, 42, 64
1, 18528, Note_off_c, 0, 36, 64
1, 18528, Note_on_c, 0, 36, 65
1, 18528, Note_on_c, 0, 38, 48
1, 18528, Note_on_c, 0, 42, 11
1, 18569, Note_off_c, 0, 38, 64
1, 18573, Note_off_c, 0, 42, 64
1, 18624, Note_off_c, 0, 36, 64
1, 18624, Note_on_c, 0, 36, 67
1, 18720, Note_off_c, 0, 36, 64
1, 18720, Note_on_c, 0, 36, 64
1, 18720, Note_on_c, 0, 38, 69
1, 18720, Note_on_c, 0, 42, 11
1, 18759, Note_off_c, 0, 38, 64
1, 18767, Note_off_c, 0, 42, 64
1, 18816, Note_off_c, 0, 36, 64
1, 18816, Note_on_c, 0, 36, 67
1, 18912, Note_off_c, 0, 36, 64
1, 18912, Note_on_c, 0, 36, 65
1, 18912, Note_on_c, 0, 38, 49
1, 18912, Note_on_c, 0, 42, 11
1, 18951, Note_off_c, 0, 38, 64
1, 18959, Note_off_c, 0, 42, 64
1, 19008, Note_off_c, 0, 36, 64
1, 19008, Note_on_c, 0, 36, 67
1, 19104, Note_off_c, 0, 36, 64
1, 19104, Note_on_c, 0, 36, 64
1, 19104, Note_on_c, 0, 38, 69
1, 19104, Note_on_c, 0, 42, 11
1, 19143, Note_off_c, 0, 38, 64
1, 19151, Note_off_c, 0, 42, 64
1, 19176, Note_off_c, 0, 36, 64
1, 19200, Note_on_c, 0, 36, 46
1, 19200, Note_on_c, 0, 42, 27
1, 19248, Note_off_c, 0, 36, 64
1, 19248, Note_off_c, 0, 42, 64
1, 19248, Note_on_c, 0, 42, 83
1, 19275, Note_off_c, 0, 42, 64
1, 19280, Note_on_c, 0, 38, 41
1, 19280, Note_on_c, 0, 42, 34
1, 19296, Note_off_c, 0, 42, 64
1, 19296, Note_on_c, 0, 42, 34
1, 19331, Note_off_c, 0, 38, 64
1, 19344, Note_off_c, 0, 42, 64
1, 19344, Note_on_c, 0, 42, 64
1, 19439, Note_off_c, 0, 42, 64
1, 19440, Note_on_c, 0, 42, 74
1, 19472, Note_on_c, 0, 38, 39
1, 19472, Note_off_c, 0, 42, 64
1, 19472, Note_on_c, 0, 42, 5
1, 19486, Note_off_c, 0, 42, 64
1, 19488, Note_on_c, 0, 42, 19
1, 19530, Note_off_c, 0, 38, 64
1, 19536, Note_off_c, 0, 42, 64
1, 19536, Note_on_c, 0, 42, 65
1, 19582, Note_off_c, 0, 42, 64
1, 19632, Note_on_c, 0, 42, 74
1, 19659, Note_off_c, 0, 42, 64
1, 19664, Note_on_c, 0, 38, 39
1, 19664, Note_on_c, 0, 42, 12
1, 19680, Note_off_c, 0, 42, 64
1, 19680, Note_on_c, 0, 42, 20
1, 19713, Note_off_c, 0, 38, 64
1, 19728, Note_off_c, 0, 42, 64
1, 19728, Note_on_c, 0, 42, 64
1, 19761, Note_off_c, 0, 42, 64
1, 19776, Note_on_c, 0, 42, 1
1, 19789, Note_off_c, 0, 42, 64
1, 19824, Note_on_c, 0, 42, 74
1, 19856, Note_on_c, 0, 38, 43
1, 19856, Note_off_c, 0, 42, 64
1, 19856, Note_on_c, 0, 42, 3
1, 19870, Note_off_c, 0, 42, 64
1, 19872, Note_on_c, 0, 42, 18
1, 19907, Note_off_c, 0, 38, 64
1, 19920, Note_off_c, 0, 42, 64
1, 19920, Note_on_c, 0, 42, 65
1, 19966, Note_off_c, 0, 42, 64
1, 19968, Note_on_c, 0, 36, 75
1, 19968, Note_on_c, 0, 42, 1
1, 19998, Note_off_c, 0, 42, 64
1, 20009, Note_off_c, 0, 36, 64
1, 20016, Note_on_c, 0, 36, 51
1, 20016, Note_on_c, 0, 38, 50
1, 20016, Note_on_c, 0, 42, 1
1, 20033, Note_off_c, 0, 36, 64
1, 20040, Note_on_c, 0, 36, 42
1, 20040, Note_off_c, 0, 42, 64
1, 20040, Note_on_c, 0, 42, 1
1, 20047, Note_off_c, 0, 38, 64
1, 20062, Note_off_c, 0, 36, 64
1, 20062, Note_off_c, 0, 42, 64
1, 20064, Note_on_c, 0, 36, 49
1, 20064, Note_on_c, 0, 38, 57
1, 20064, Note_on_c, 0, 42, 16
1, 20098, Note_off_c, 0, 38, 64
1, 20106, Note_off_c, 0, 36, 64
1, 20112, Note_on_c, 0, 36, 54
1, 20112, Note_on_c, 0, 38, 45
1, 20112, Note_off_c, 0, 42, 64
1, 20112, Note_on_c, 0, 42, 1
1, 20130, Note_off_c, 0, 36, 64
1, 20150, Note_off_c, 0, 38, 64
1, 20160, Note_on_c, 0, 36, 54
1, 20160, Note_off_c, 0, 42, 64
1, 20160, Note_on_c, 0, 42, 1
1, 20172, Note_off_c, 0, 42, 64
1, 20202, Note_off_c, 0, 36, 64
1, 20208, Note_on_c, 0, 36, 54
1, 20208, Note_on_c, 0, 38, 43
1, 20208, Note_on_c, 0, 42, 1
1, 20226, Note_off_c, 0, 36, 64
1, 20233, Note_off_c, 0, 38, 64
1, 20255, Note_off_c, 0, 42, 64
1, 20256, Note_on_c, 0, 36, 59
1, 20256, Note_on_c, 0, 38, 72
1, 20256, Note_on_c, 0, 42, 17
1, 20287, Note_off_c, 0, 38, 64
1, 20296, Note_off_c, 0, 36, 64
1, 20304, Note_on_c, 0, 36, 49
1, 20304, Note_on_c, 0, 38, 44
1, 20304, Note_off_c, 0, 42, 64
1, 20304, Note_on_c, 0, 42, 64
1, 20319, Note_off_c, 0, 36, 64
1, 20340, Note_off_c, 0, 38, 64
1, 20351, Note_off_c, 0, 42, 64
1, 20352, Note_on_c, 0, 36, 44
1, 20352, Note_on_c, 0, 42, 1
1, 20395, Note_off_c, 0, 36, 64
1, 20400, Note_on_c, 0, 36, 62
1, 20400, Note_on_c, 0, 38, 50
1, 20400, Note_off_c, 0, 42, 64
1, 20400, Note_on_c, 0, 42, 1
1, 20419, Note_off_c, 0, 36, 64
1, 20424, Note_on_c, 0, 36, 42
1, 20424, Note_off_c, 0, 42, 64
1, 20424, Note_on_c, 0, 42, 1
1, 20431, Note_off_c, 0, 38, 64
1, 20445, Note_off_c, 0, 36, 64
1, 20445, Note_off_c, 0, 42, 64
1, 20448, Note_on_c, 0, 36, 49
1, 20448, Note_on_c, 0, 38, 57
1, 20448, Note_on_c, 0, 42, 16
1, 20471, Note_off_c, 0, 42, 64
1, 20475, Note_off_c, 0, 36, 64
1, 20479, Note_off_c, 0, 38, 64
1, 20496, Note_on_c, 0, 38, 42
1, 20496, Note_on_c, 0, 42, 1
1, 20533, Note_off_c, 0, 38, 64
1, 20544, Note_on_c, 0, 36, 63
1, 20544, Note_off_c, 0, 42, 64
1, 20544, Note_on_c, 0, 42, 1
1, 20555, Note_off_c, 0, 42, 64
1, 20586, Note_off_c, 0, 36, 64
1, 20592, Note_on_c, 0, 36, 71
1, 20592, Note_on_c, 0, 38, 45
1, 20592, Note_on_c, 0, 42, 1
1, 20628, Note_off_c, 0, 38, 64
1, 20634, Note_off_c, 0, 36, 64
1, 20639, Note_off_c, 0, 42, 64
1, 20640, Note_on_c, 0, 36, 63
1, 20640, Note_on_c, 0, 38, 65
1, 20640, Note_on_c, 0, 42, 17
1, 20658, Note_off_c, 0, 36, 64
1, 20664, Note_on_c, 0, 36, 56
1, 20664, Note_off_c, 0, 38, 64
1, 20664, Note_on_c, 0, 38, 47
1, 20664, Note_off_c, 0, 42, 64
1, 20664, Note_on_c, 0, 42, 9
1, 20683, Note_off_c, 0, 36, 64
1, 20687, Note_off_c, 0, 42, 64
1, 20688, Note_on_c, 0, 42, 87
1, 20720, Note_off_c, 0, 38, 64
1, 20736, Note_on_c, 0, 36, 87
1, 20742, Note_off_c, 0, 42, 64
1, 20777, Note_off_c, 0, 36, 64
1, 20832, Note_on_c, 0, 36, 65
1, 20832, Note_on_c, 0, 38, 45
1, 20832, Note_on_c, 0, 42, 17
1, 20865, Note_off_c, 0, 38, 64
1, 20872, Note_off_c, 0, 36, 64
1, 20878, Note_off_c, 0, 42, 64
1, 20928, Note_on_c, 0, 36, 63
1, 20970, Note_off_c, 0, 36, 64
1, 21024, Note_on_c, 0, 36, 60
1, 21024, Note_on_c, 0, 38, 64
1, 21024, Note_on_c, 0, 42, 17
1, 21042, Note_off_c, 0, 36, 64
1, 21055, Note_off_c, 0, 38, 64
1, 21119, Note_off_c, 0, 42, 64
1, 21120, Note_on_c, 0, 36, 87
1, 21161, Note_off_c, 0, 36, 64
1, 21216, Note_on_c, 0, 36, 65
1, 21216, Note_on_c, 0, 38, 45
1, 21216, Note_on_c, 0, 42, 17
1, 21249, Note_off_c, 0, 38, 64
1, 21256, Note_off_c, 0, 36, 64
1, 21262, Note_off_c, 0, 42, 64
1, 21312, Note_on_c, 0, 36, 63
1, 21312, Note_on_c, 0, 42, 1
1, 21323, Note_off_c, 0, 42, 64
1, 21354, Note_off_c, 0, 36, 64
1, 21408, Note_on_c, 0, 36, 60
1, 21408, Note_on_c, 0, 38, 64
1, 21408, Note_on_c, 0, 42, 17
1, 21426, Note_off_c, 0, 36, 64
1, 21439, Note_off_c, 0, 38, 64
1, 21500, Note_off_c, 0, 42, 64
1, 21552, Note_on_c, 0, 38, 50
1, 21576, Note_on_c, 0, 36, 84
1, 21576, Note_on_c, 0, 42, 1
1, 21583, Note_off_c, 0, 38, 64
1, 21597, Note_off_c, 0, 42, 64
1, 21600, Note_on_c, 0, 38, 68
1, 21600, Note_on_c, 0, 42, 17
1, 21620, Note_off_c, 0, 36, 64
1, 21635, Note_off_c, 0, 38, 64
1, 21648, Note_on_c, 0, 38, 42
1, 21648, Note_off_c, 0, 42, 64
1, 21648, Note_on_c, 0, 42, 1
1, 21686, Note_off_c, 0, 38, 64
1, 21744, Note_on_c, 0, 36, 51
1, 21744, Note_on_c, 0, 38, 61
1, 21744, Note_off_c, 0, 42, 64
1, 21744, Note_on_c, 0, 42, 1
1, 21767, Note_off_c, 0, 38, 64
1, 21787, Note_off_c, 0, 36, 64
1, 21791, Note_off_c, 0, 42, 64
1, 21792, Note_on_c, 0, 36, 68
1, 21792, Note_on_c, 0, 38, 46
1, 21792, Note_on_c, 0, 42, 18
1, 21811, Note_off_c, 0, 36, 64
1, 21827, Note_off_c, 0, 38, 64
1, 21840, Note_on_c, 0, 36, 50
1, 21840, Note_on_c, 0, 38, 44
1, 21840, Note_off_c, 0, 42, 64
1, 21840, Note_on_c, 0, 42, 72
1, 21873, Note_off_c, 0, 38, 64
1, 21929, Note_off_c, 0, 36, 64
1, 21936, Note_on_c, 0, 38, 50
1, 21936, Note_off_c, 0, 42, 64
1, 21936, Note_on_c, 0, 42, 1
1, 21960, Note_on_c, 0, 36, 84
1, 21960, Note_off_c, 0, 42, 64
1, 21960, Note_on_c, 0, 42, 1
1, 21967, Note_off_c, 0, 38, 64
1, 21980, Note_off_c, 0, 42, 64
1, 21984, Note_on_c, 0, 38, 68
1, 21984, Note_on_c, 0, 42, 17
1, 22004, Note_off_c, 0, 36, 64
1, 22019, Note_off_c, 0, 38, 64
1, 22032, Note_on_c, 0, 38, 42
1, 22032, Note_off_c, 0, 42, 64
1, 22032, Note_on_c, 0, 42, 1
1, 22069, Note_off_c, 0, 38, 64
1, 22128, Note_on_c, 0, 36, 71
1, 22128, Note_on_c, 0, 38, 45
1, 22128, Note_off_c, 0, 42, 64
1, 22128, Note_on_c, 0, 42, 1
1, 22164, Note_off_c, 0, 38, 64
1, 22170, Note_off_c, 0, 36, 64
1, 22175, Note_off_c, 0, 42, 64
1, 22176, Note_on_c, 0, 36, 63
1, 22176, Note_on_c, 0, 38, 46
1, 22176, Note_on_c, 0, 42, 18
1, 22194, Note_off_c, 0, 36, 64
1, 22200, Note_off_c, 0, 38, 64
1, 22200, Note_on_c, 0, 38, 44
1, 22200, Note_off_c, 0, 42, 64
1, 22200, Note_on_c, 0, 42, 9
1, 22223, Note_off_c, 0, 42, 64
1, 22224, Note_on_c, 0, 42, 87
1, 22257, Note_off_c, 0, 38, 64
1, 22272, Note_on_c, 0, 36, 53
1, 22272, Note_on_c, 0, 38, 60
1, 22272, Note_off_c, 0, 42, 64
1, 22272, Note_on_c, 0, 42, 16
1, 22284, Note_off_c, 0, 38, 64
1, 22311, Note_off_c, 0, 36, 64
1, 22315, Note_off_c, 0, 42, 64
1, 22320, Note_on_c, 0, 36, 63
1, 22320, Note_on_c, 0, 42, 14
1, 22342, Note_off_c, 0, 36, 64
1, 22361, Note_off_c, 0, 42, 64
1, 22368, Note_on_c, 0, 36, 61
1, 22368, Note_on_c, 0, 38, 43
1, 22368, Note_on_c, 0, 42, 45
1, 22390, Note_off_c, 0, 38, 64
1, 22398, Note_off_c, 0, 42, 64
1, 22400, Note_on_c, 0, 42, 2
1, 22405, Note_off_c, 0, 36, 64
1, 22416, Note_off_c, 0, 42, 64
1, 22416, Note_on_c, 0, 42, 1
1, 22463, Note_off_c, 0, 42, 64
1, 22464, Note_on_c, 0, 36, 65
1, 22464, Note_on_c, 0, 38, 50
1, 22464, Note_on_c, 0, 42, 16
1, 22476, Note_off_c, 0, 38, 64
1, 22501, Note_off_c, 0, 36, 64
1, 22506, Note_off_c, 0, 42, 64
1, 22512, Note_on_c, 0, 36, 65
1, 22522, Note_off_c, 0, 36, 64
1, 22544, Note_on_c, 0, 42, 19
1, 22560, Note_on_c, 0, 36, 57
1, 22560, Note_on_c, 0, 38, 40
1, 22560, Note_off_c, 0, 42, 64
1, 22560, Note_on_c, 0, 42, 33
1, 22583, Note_off_c, 0, 38, 64
1, 22588, Note_off_c, 0, 42, 64
1, 22592, Note_on_c, 0, 42, 28
1, 22595, Note_off_c, 0, 36, 64
1, 22608, Note_on_c, 0, 38, 29
1, 22608, Note_off_c, 0, 42, 64
1, 22608, Note_on_c, 0, 42, 4
1, 22637, Note_off_c, 0, 42, 64
1, 22640, Note_off_c, 0, 38, 64
1, 22640, Note_on_c, 0, 42, 31
1, 22656, Note_on_c, 0, 36, 61
1, 22656, Note_on_c, 0, 38, 46
1, 22656, Note_off_c, 0, 42, 64
1, 22656, Note_on_c, 0, 42, 10
1, 22668, Note_off_c, 0, 38, 64
1, 22692, Note_off_c, 0, 36, 64
1, 22697, Note_off_c, 0, 42, 64
1, 22704, Note_on_c, 0, 36, 69
1, 22704, Note_on_c, 0, 42, 11
1, 22725, Note_off_c, 0, 36, 64
1, 22745, Note_off_c, 0, 42, 64
1, 22752, Note_on_c, 0, 36, 57
1, 22752, Note_on_c, 0, 38, 29
1, 22752, Note_on_c, 0, 42, 33
1, 22775, Note_off_c, 0, 38, 64
1, 22782, Note_off_c, 0, 42, 64
1, 22784, Note_on_c, 0, 42, 2
1, 22787, Note_off_c, 0, 36, 64
1, 22800, Note_off_c, 0, 42, 64
1, 22800, Note_on_c, 0, 42, 1
1, 22847, Note_off_c, 0, 42, 64
1, 22848, Note_on_c, 0, 36, 65
1, 22848, Note_on_c, 0, 38, 36
1, 22848, Note_on_c, 0, 42, 10
1, 22862, Note_off_c, 0, 38, 64
1, 22884, Note_off_c, 0, 36, 64
1, 22888, Note_off_c, 0, 42, 64
1, 22896, Note_on_c, 0, 36, 70
1, 22896, Note_on_c, 0, 42, 6
1, 22916, Note_off_c, 0, 36, 64
1, 22924, Note_off_c, 0, 42, 64
1, 22928, Note_on_c, 0, 38, 29
1, 22928, Note_on_c, 0, 42, 19
1, 22944, Note_on_c, 0, 36, 58
1, 22944, Note_off_c, 0, 38, 64
1, 22944, Note_on_c, 0, 38, 83
1, 22944, Note_off_c, 0, 42, 64
1, 22944, Note_on_c, 0, 42, 32
1, 22963, Note_off_c, 0, 38, 64
1, 22973, Note_off_c, 0, 42, 64
1, 22976, Note_on_c, 0, 42, 29
1, 22979, Note_off_c, 0, 36, 64
1, 22992, Note_on_c, 0, 38, 29
1, 22992, Note_off_c, 0, 42, 64
1, 22992, Note_on_c, 0, 42, 4
1, 23021, Note_off_c, 0, 42, 64
1, 23024, Note_off_c, 0, 38, 64
1, 23024, Note_on_c, 0, 42, 28
1, 23040, Note_off_c, 0, 42, 64
1, 23040, Note_on_c, 0, 42, 13
1, 23051, Note_off_c, 0, 42, 64
1, 23088, Note_on_c, 0, 36, 69
1, 23088, Note_on_c, 0, 42, 8
1, 23109, Note_off_c, 0, 36, 64
1, 23126, Note_off_c, 0, 42, 64
1, 23136, Note_on_c, 0, 38, 40
1, 23136, Note_on_c, 0, 42, 39
1, 23159, Note_off_c, 0, 38, 64
1, 23168, Note_off_c, 0, 42, 64
1, 23168, Note_on_c, 0, 42, 2
1, 23184, Note_off_c, 0, 42, 64
1, 23184, Note_on_c, 0, 42, 1
1, 23212, Note_off_c, 0, 42, 64
1, 23216, Note_on_c, 0, 42, 1
1, 23232, Note_off_c, 0, 42, 64
1, 23232, Note_on_c, 0, 42, 13
1, 23243, Note_off_c, 0, 42, 64
1, 23280, Note_on_c, 0, 36, 70
1, 23280, Note_on_c, 0, 42, 3
1, 23300, Note_off_c, 0, 36, 64
1, 23308, Note_off_c, 0, 42, 64
1, 23312, Note_on_c, 0, 42, 20
1, 23328, Note_on_c, 0, 38, 33
1, 23328, Note_off_c, 0, 42, 64
1, 23328, Note_on_c, 0, 42, 39
1, 23350, Note_off_c, 0, 38, 64
1, 23360, Note_off_c, 0, 42, 64
1, 23360, Note_on_c, 0, 42, 29
1, 23376, Note_on_c, 0, 38, 29
1, 23376, Note_off_c, 0, 42, 64
1, 23376, Note_on_c, 0, 42, 5
1, 23405, Note_off_c, 0, 42, 64
1, 23408, Note_off_c, 0, 38, 64
1, 23408, Note_on_c, 0, 42, 29
1, 23424, Note_off_c, 0, 42, 64
1, 23424, Note_on_c, 0, 42, 13
1, 23435, Note_off_c, 0, 42, 64
1, 23472, Note_on_c, 0, 36, 69
1, 23472, Note_on_c, 0, 42, 2
1, 23493, Note_off_c, 0, 36, 64
1, 23515, Note_off_c, 0, 42, 64
1, 23520, Note_on_c, 0, 38, 40
1, 23520, Note_on_c, 0, 42, 39
1, 23543, Note_off_c, 0, 38, 64
1, 23552, Note_off_c, 0, 42, 64
1, 23552, Note_on_c, 0, 42, 2
1, 23568, Note_off_c, 0, 42, 64
1, 23568, Note_on_c, 0, 42, 1
1, 23596, Note_off_c, 0, 42, 64
1, 23600, Note_on_c, 0, 42, 1
1, 23616, Note_off_c, 0, 42, 64
1, 23616, Note_on_c, 0, 42, 13
1, 23627, Note_off_c, 0, 42, 64
1, 23664, Note_on_c, 0, 36, 70
1, 23664, Note_on_c, 0, 42, 5
1, 23684, Note_off_c, 0, 36, 64
1, 23692, Note_off_c, 0, 42, 64
1, 23696, Note_on_c, 0, 38, 29
1, 23696, Note_on_c, 0, 42, 18
1, 23712, Note_off_c, 0, 38, 64
1, 23712, Note_on_c, 0, 38, 56
1, 23712, Note_off_c, 0, 42, 64
1, 23712, Note_on_c, 0, 42, 40
1, 23731, Note_off_c, 0, 38, 64
1, 23744, Note_off_c, 0, 42, 64
1, 23744, Note_on_c, 0, 42, 29
1, 23760, Note_on_c, 0, 38, 29
1, 23760, Note_off_c, 0, 42, 64
1, 23760, Note_on_c, 0, 42, 4
1, 23789, Note_off_c, 0, 42, 64
1, 23792, Note_off_c, 0, 38, 64
1, 23792, Note_on_c, 0, 42, 32
1, 23808, Note_on_c, 0, 36, 58
1, 23808, Note_off_c, 0, 42, 64
1, 23808, Note_on_c, 0, 42, 1
1, 23832, Note_off_c, 0, 42, 64
1, 23856, Note_off_c, 0, 36, 64
1, 23856, Note_on_c, 0, 36, 102
1, 23856, Note_on_c, 0, 42, 66
1, 23887, Note_off_c, 0, 36, 64
1, 23903, Note_off_c, 0, 42, 64
1, 23904, Note_on_c, 0, 36, 62
1, 23904, Note_on_c, 0, 38, 43
1, 23904, Note_on_c, 0, 42, 26
1, 23922, Note_off_c, 0, 38, 64
1, 23929, Note_off_c, 0, 42, 64
1, 23952, Note_off_c, 0, 36, 64
1, 23952, Note_on_c, 0, 36, 99
1, 23952, Note_on_c, 0, 42, 68
1, 23981, Note_off_c, 0, 36, 64
1, 24000, Note_on_c, 0, 36, 80
1, 24000, Note_off_c, 0, 42, 64
1, 24000, Note_on_c, 0, 42, 7
1, 24038, Note_off_c, 0, 42, 64
1, 24048, Note_off_c, 0, 36, 64
1, 24048, Note_on_c, 0, 36, 103
1, 24048, Note_on_c, 0, 42, 70
1, 24077, Note_off_c, 0, 36, 64
1, 24095, Note_off_c, 0, 42, 64
1, 24096, Note_on_c, 0, 36, 74
1, 24096, Note_on_c, 0, 38, 30
1, 24096, Note_on_c, 0, 42, 25
1, 24117, Note_off_c, 0, 38, 64
1, 24122, Note_off_c, 0, 42, 64
1, 24144, Note_off_c, 0, 36, 64
1, 24144, Note_on_c, 0, 36, 101
1, 24144, Note_on_c, 0, 42, 69
1, 24172, Note_off_c, 0, 36, 64
1, 24192, Note_on_c, 0, 36, 58
1, 24192, Note_off_c, 0, 42, 64
1, 24192, Note_on_c, 0, 42, 7
1, 24231, Note_off_c, 0, 42, 64
1, 24240, Note_off_c, 0, 36, 64
1, 24240, Note_on_c, 0, 36, 102
1, 24240, Note_on_c, 0, 42, 66
1, 24271, Note_off_c, 0, 36, 64
1, 24287, Note_off_c, 0, 42, 64
1, 24288, Note_on_c, 0, 36, 61
1, 24288, Note_on_c, 0, 38, 42
1, 24288, Note_on_c, 0, 42, 26
1, 24306, Note_off_c, 0, 38, 64
1, 24313, Note_off_c, 0, 42, 64
1, 24336, Note_off_c, 0, 36, 64
1, 24336, Note_on_c, 0, 36, 99
1, 24336, Note_on_c, 0, 42, 68
1, 24365, Note_off_c, 0, 36, 64
1, 24384, Note_on_c, 0, 36, 80
1, 24384, Note_off_c, 0, 42, 64
1, 24384, Note_on_c, 0, 42, 7
1, 24422, Note_off_c, 0, 42, 64
1, 24432, Note_off_c, 0, 36, 64
1, 24432, Note_on_c, 0, 36, 103
1, 24432, Note_on_c, 0, 42, 70
1, 24461, Note_off_c, 0, 36, 64
1, 24479, Note_off_c, 0, 42, 64
1, 24480, Note_on_c, 0, 36, 74
1, 24480, Note_on_c, 0, 38, 30
1, 24480, Note_on_c, 0, 42, 25
1, 24501, Note_off_c, 0, 38, 64
1, 24506, Note_off_c, 0, 42, 64
1, 24528, Note_off_c, 0, 36, 64
1, 24528, Note_on_c, 0, 36, 101
1, 24528, Note_on_c, 0, 42, 69
1, 24556, Note_off_c, 0, 36, 64
1, 24570, Note_off_c, 0, 42, 64
1, 24576, Note_on_c, 0, 36, 103
1, 24576, Note_on_c, 0, 42, 1
1, 24592, Note_off_c, 0, 42, 64
1, 24605, Note_off_c, 0, 36, 64
1, 24672, Note_on_c, 0, 36, 102
1, 24672, Note_on_c, 0, 38, 33
1, 24672, Note_on_c, 0, 42, 30
1, 24691, Note_off_c, 0, 38, 64
1, 24698, Note_off_c, 0, 42, 64
1, 24700, Note_off_c, 0, 36, 64
1, 24768, Note_on_c, 0, 36, 101
1, 24768, Note_on_c, 0, 42, 1
1, 24792, Note_off_c, 0, 42, 64
1, 24816, Note_off_c, 0, 36, 64
1, 24816, Note_on_c, 0, 36, 104
1, 24816, Note_on_c, 0, 42, 11
1, 24843, Note_off_c, 0, 36, 64
1, 24850, Note_off_c, 0, 42, 64
1, 24864, Note_on_c, 0, 36, 104
1, 24864, Note_on_c, 0, 38, 44
1, 24864, Note_on_c, 0, 42, 30
1, 24883, Note_off_c, 0, 38, 64
1, 24892, Note_off_c, 0, 36, 64
1, 24892, Note_off_c, 0, 42, 64
1, 24960, Note_on_c, 0, 36, 103
1, 24960, Note_on_c, 0, 42, 1
1, 24984, Note_off_c, 0, 42, 64
1, 24989, Note_off_c, 0, 36, 64
1, 25056, Note_on_c, 0, 36, 102
1, 25056, Note_on_c, 0, 38, 32
1, 25056, Note_on_c, 0, 42, 30
1, 25075, Note_off_c, 0, 38, 64
1, 25081, Note_off_c, 0, 42, 64
1, 25084, Note_off_c, 0, 36, 64
1, 25152, Note_on_c, 0, 36, 102
1, 25152, Note_on_c, 0, 42, 1
1, 25176, Note_off_c, 0, 42, 64
1, 25200, Note_off_c, 0, 36, 64
1, 25200, Note_on_c, 0, 36, 104
1, 25200, Note_on_c, 0, 42, 11
1, 25227, Note_off_c, 0, 36, 64
1, 25234, Note_off_c, 0, 42, 64
1, 25248, Note_on_c, 0, 36, 104
1, 25248, Note_on_c, 0, 38, 44
1, 25248, Note_on_c, 0, 42, 29
1, 25269, Note_off_c, 0, 38, 64
1, 25274, Note_off_c, 0, 42, 64
1, 25276, Note_off_c, 0, 36, 64
1, 25392, Note_on_c, 0, 42, 75
1, 25411, Note_off_c, 0, 42, 64
1, 25424, Note_on_c, 0, 42, 11
1, 25439, Note_off_c, 0, 42, 64
1, 25488, Note_on_c, 0, 42, 78
1, 25517, Note_off_c, 0, 42, 64
1, 25520, Note_on_c, 0, 42, 15
1, 25553, Note_off_c, 0, 42, 64
1, 25584, Note_on_c, 0, 42, 75
1, 25603, Note_off_c, 0, 42, 64
1, 25616, Note_on_c, 0, 42, 11
1, 25631, Note_off_c, 0, 42, 64
1, 25680, Note_on_c, 0, 42, 78
1, 25709, Note_off_c, 0, 42, 64
1, 25712, Note_on_c, 0, 42, 12
1, 25744, Note_off_c, 0, 42, 64
1, 25776, Note_on_c, 0, 42, 75
1, 25795, Note_off_c, 0, 42, 64
1, 25808, Note_on_c, 0, 42, 11
1, 25823, Note_off_c, 0, 42, 64
1, 25872, Note_on_c, 0, 42, 78
1, 25901, Note_off_c, 0, 42, 64
1, 25904, Note_on_c, 0, 42, 15
1, 25937, Note_off_c, 0, 42, 64
1, 25968, Note_on_c, 0, 42, 75
1, 25987, Note_off_c, 0, 42, 64
1, 26000, Note_on_c, 0, 42, 11
1, 26015, Note_off_c, 0, 42, 64
1, 26064, Note_on_c, 0, 42, 78
1, 26093, Note_off_c, 0, 42, 64
1, 26096, Note_on_c, 0, 42, 12
1, 26112, Note_on_c, 0, 36, 62
1, 26112, Note_off_c, 0, 42, 64
1, 26112, Note_on_c, 0, 42, 1
1, 26127, Note_off_c, 0, 42, 64
1, 26160, Note_on_c, 0, 42, 80
1, 26180, Note_off_c, 0, 36, 64
1, 26206, Note_off_c, 0, 42, 64
1, 26208, Note_on_c, 0, 36, 59
1, 26208, Note_on_c, 0, 38, 29
1, 26208, Note_on_c, 0, 42, 31
1, 26228, Note_off_c, 0, 38, 64
1, 26238, Note_off_c, 0, 42, 64
1, 26240, Note_on_c, 0, 38, 28
1, 26240, Note_on_c, 0, 42, 6
1, 26253, Note_off_c, 0, 38, 64
1, 26256, Note_on_c, 0, 38, 25
1, 26256, Note_off_c, 0, 42, 64
1, 26256, Note_on_c, 0, 42, 75
1, 26274, Note_off_c, 0, 36, 64
1, 26288, Note_off_c, 0, 38, 64
1, 26288, Note_on_c, 0, 38, 60
1, 26288, Note_off_c, 0, 42, 64
1, 26288, Note_on_c, 0, 42, 2
1, 26304, Note_on_c, 0, 36, 70
1, 26311, Note_off_c, 0, 38, 64
1, 26312, Note_off_c, 0, 42, 64
1, 26352, Note_on_c, 0, 42, 79
1, 26372, Note_off_c, 0, 36, 64
1, 26398, Note_off_c, 0, 42, 64
1, 26400, Note_on_c, 0, 36, 55
1, 26400, Note_on_c, 0, 38, 26
1, 26400, Note_on_c, 0, 42, 34
1, 26413, Note_off_c, 0, 38, 64
1, 26437, Note_off_c, 0, 42, 64
1, 26448, Note_on_c, 0, 42, 80
1, 26467, Note_off_c, 0, 36, 64
1, 26495, Note_off_c, 0, 42, 64
1, 26496, Note_on_c, 0, 36, 62
1, 26496, Note_on_c, 0, 42, 1
1, 26516, Note_off_c, 0, 42, 64
1, 26544, Note_on_c, 0, 42, 80
1, 26564, Note_off_c, 0, 36, 64
1, 26590, Note_off_c, 0, 42, 64
1, 26592, Note_on_c, 0, 36, 59
1, 26592, Note_on_c, 0, 38, 29
1, 26592, Note_on_c, 0, 42, 31
1, 26612, Note_off_c, 0, 38, 64
1, 26616, Note_off_c, 0, 36, 64
1, 26622, Note_off_c, 0, 42, 64
1, 26640, Note_on_c, 0, 36, 55
1, 26640, Note_on_c, 0, 38, 39
1, 26640, Note_on_c, 0, 42, 101
1, 26670, Note_off_c, 0, 38, 64
1, 26670, Note_off_c, 0, 42, 64
1, 26672, Note_on_c, 0, 38, 51
1, 26672, Note_on_c, 0, 42, 1
1, 26674, Note_off_c, 0, 36, 64
1, 26688, Note_on_c, 0, 36, 58
1, 26698, Note_off_c, 0, 38, 64
1, 26715, Note_off_c, 0, 42, 64
1, 26736, Note_off_c, 0, 36, 64
1, 26736, Note_on_c, 0, 36, 64
1, 26736, Note_on_c, 0, 42, 109
1, 26781, Note_off_c, 0, 36, 64
1, 26781, Note_off_c, 0, 42, 64
1, 26784, Note_on_c, 0, 36, 47
1, 26784, Note_on_c, 0, 42, 53
1, 26824, Note_off_c, 0, 42, 64
1, 26832, Note_off_c, 0, 36, 64
1, 26832, Note_on_c, 0, 36, 63
1, 26832, Note_on_c, 0, 42, 97
1, 26856, Note_on_c, 0, 38, 44
1, 26856, Note_off_c, 0, 42, 64
1, 26856, Note_on_c, 0, 42, 3
1, 26876, Note_off_c, 0, 42, 64
1, 26877, Note_off_c, 0, 36, 64
1, 26880, Note_on_c, 0, 36, 64
1, 26880, Note_on_c, 0, 42, 1
1, 26882, Note_off_c, 0, 38, 64
1, 26891, Note_off_c, 0, 42, 64
1, 26927, Note_off_c, 0, 36, 64
1, 26976, Note_on_c, 0, 36, 67
1, 26976, Note_on_c, 0, 38, 63
1, 26976, Note_on_c, 0, 42, 40
1, 26990, Note_off_c, 0, 38, 64
1, 27013, Note_off_c, 0, 42, 64
1, 27045, Note_off_c, 0, 36, 64
1, 27072, Note_on_c, 0, 36, 63
1, 27119, Note_off_c, 0, 36, 64
1, 27168, Note_on_c, 0, 36, 63
1, 27168, Note_on_c, 0, 38, 55
1, 27168, Note_on_c, 0, 42, 42
1, 27182, Note_off_c, 0, 38, 64
1, 27206, Note_off_c, 0, 42, 64
1, 27213, Note_off_c, 0, 36, 64
1, 27264, Note_on_c, 0, 36, 64
1, 27311, Note_off_c, 0, 36, 64
1, 27360, Note_on_c, 0, 36, 67
1, 27360, Note_on_c, 0, 38, 63
1, 27360, Note_on_c, 0, 42, 40
1, 27374, Note_off_c, 0, 38, 64
1, 27397, Note_off_c, 0, 42, 64
1, 27429, Note_off_c, 0, 36, 64
1, 27456, Note_on_c, 0, 36, 64
1, 27504, Note_off_c, 0, 36, 64
1, 27504, Note_on_c, 0, 36, 50
1, 27504, Note_on_c, 0, 42, 21
1, 27526, Note_off_c, 0, 36, 64
1, 27542, Note_off_c, 0, 42, 64
1, 27552, Note_on_c, 0, 36, 63
1, 27552, Note_on_c, 0, 42, 53
1, 27592, Note_off_c, 0, 42, 64
1, 27598, Note_off_c, 0, 36, 64
1, 27696, Note_on_c, 0, 42, 110
1, 27741, Note_off_c, 0, 42, 64
1, 27744, Note_on_c, 0, 38, 54
1, 27744, Note_on_c, 0, 42, 45
1, 27775, Note_off_c, 0, 38, 64
1, 27775, Note_off_c, 0, 42, 64
1, 27776, Note_on_c, 0, 38, 41
1, 27776, Note_on_c, 0, 42, 8
1, 27791, Note_off_c, 0, 38, 64
1, 27792, Note_on_c, 0, 38, 40
1, 27792, Note_off_c, 0, 42, 64
1, 27792, Note_on_c, 0, 42, 100
1, 27822, Note_off_c, 0, 38, 64
1, 27822, Note_off_c, 0, 42, 64
1, 27824, Note_on_c, 0, 38, 80
1, 27824, Note_on_c, 0, 42, 1
1, 27851, Note_off_c, 0, 38, 64
1, 27888, Note_off_c, 0, 42, 64
1, 27888, Note_on_c, 0, 42, 110
1, 27930, Note_off_c, 0, 42, 64
1, 27936, Note_on_c, 0, 38, 51
1, 27936, Note_on_c, 0, 42, 49
1, 27952, Note_off_c, 0, 38, 64
1, 27984, Note_off_c, 0, 42, 64
1, 27984, Note_on_c, 0, 42, 108
1, 28045, Note_off_c, 0, 42, 64
1, 28080, Note_on_c, 0, 42, 110
1, 28125, Note_off_c, 0, 42, 64
1, 28128, Note_on_c, 0, 38, 54
1, 28128, Note_on_c, 0, 42, 44
1, 28159, Note_off_c, 0, 38, 64
1, 28159, Note_off_c, 0, 42, 64
1, 28160, Note_on_c, 0, 38, 41
1, 28160, Note_on_c, 0, 42, 8
1, 28175, Note_off_c, 0, 38, 64
1, 28176, Note_off_c, 0, 42, 64
1, 28176, Note_on_c, 0, 42, 101
1, 28200, Note_on_c, 0, 38, 51
1, 28200, Note_off_c, 0, 42, 64
1, 28200, Note_on_c, 0, 42, 1
1, 28227, Note_off_c, 0, 38, 64
1, 28269, Note_off_c, 0, 42, 64
1, 28272, Note_on_c, 0, 42, 108
1, 28318, Note_off_c, 0, 42, 64
1, 28320, Note_on_c, 0, 38, 45
1, 28320, Note_on_c, 0, 42, 60
1, 28333, Note_off_c, 0, 38, 64
1, 28368, Note_off_c, 0, 42, 64
1, 28368, Note_on_c, 0, 42, 97
1, 28392, Note_on_c, 0, 38, 44
1, 28392, Note_off_c, 0, 42, 64
1, 28392, Note_on_c, 0, 42, 3
1, 28413, Note_off_c, 0, 38, 64
1, 28413, Note_off_c, 0, 42, 64
1, 28416, Note_on_c, 0, 36, 51
1, 28416, Note_on_c, 0, 38, 80
1, 28416, Note_on_c, 0, 42, 23
1, 28434, Note_off_c, 0, 38, 64
1, 28449, Note_off_c, 0, 36, 64
1, 28464, Note_off_c, 0, 42, 64
1, 28464, Note_on_c, 0, 42, 53
1, 28488, Note_on_c, 0, 36, 41
1, 28488, Note_on_c, 0, 38, 40
1, 28488, Note_off_c, 0, 42, 64
1, 28488, Note_on_c, 0, 42, 19
1, 28510, Note_off_c, 0, 36, 64
1, 28510, Note_off_c, 0, 38, 64
1, 28510, Note_off_c, 0, 42, 64
1, 28512, Note_on_c, 0, 36, 52
1, 28512, Note_on_c, 0, 38, 100
1, 28512, Note_on_c, 0, 42, 30
1, 28529, Note_off_c, 0, 38, 64
1, 28560, Note_off_c, 0, 36, 64
1, 28560, Note_on_c, 0, 36, 46
1, 28560, Note_on_c, 0, 38, 40
1, 28560, Note_off_c, 0, 42, 64
1, 28560, Note_on_c, 0, 42, 56
1, 28575, Note_off_c, 0, 38, 64
1, 28607, Note_off_c, 0, 36, 64
1, 28607, Note_off_c, 0, 42, 64
1, 28608, Note_on_c, 0, 36, 66
1, 28608, Note_on_c, 0, 38, 63
1, 28608, Note_on_c, 0, 42, 22
1, 28619, Note_off_c, 0, 38, 64
1, 28656, Note_off_c, 0, 36, 64
1, 28656, Note_on_c, 0, 36, 64
1, 28664, Note_off_c, 0, 42, 64
1, 28667, Note_off_c, 0, 36, 64
1, 28680, Note_on_c, 0, 36, 64
1, 28680, Note_on_c, 0, 38, 36
1, 28680, Note_on_c, 0, 42, 16
1, 28696, Note_off_c, 0, 38, 64
1, 28700, Note_off_c, 0, 36, 64
1, 28700, Note_off_c, 0, 42, 64
1, 28704, Note_on_c, 0, 36, 56
1, 28704, Note_on_c, 0, 38, 97
1, 28704, Note_on_c, 0, 42, 20
1, 28718, Note_off_c, 0, 38, 64
1, 28728, Note_off_c, 0, 36, 64
1, 28728, Note_on_c, 0, 36, 76
1, 28728, Note_off_c, 0, 42, 64
1, 28728, Note_on_c, 0, 42, 7
1, 28752, Note_off_c, 0, 36, 64
1, 28752, Note_on_c, 0, 36, 52
1, 28752, Note_on_c, 0, 38, 35
1, 28752, Note_off_c, 0, 42, 64
1, 28752, Note_on_c, 0, 42, 52
1, 28766, Note_off_c, 0, 38, 64
1, 28798, Note_off_c, 0, 36, 64
1, 28798, Note_off_c, 0, 42, 64
1, 28800, Note_on_c, 0, 36, 60
1, 28800, Note_on_c, 0, 38, 59
1, 28800, Note_on_c, 0, 42, 20
1, 28817, Note_off_c, 0, 38, 64
1, 28833, Note_off_c, 0, 36, 64
1, 28848, Note_off_c, 0, 42, 64
1, 28848, Note_on_c, 0, 42, 45
1, 28872, Note_on_c, 0, 36, 43
1, 28872, Note_on_c, 0, 38, 39
1, 28872, Note_off_c, 0, 42, 64
1, 28872, Note_on_c, 0, 42, 16
1, 28894, Note_off_c, 0, 36, 64
1, 28894, Note_off_c, 0, 38, 64
1, 28894, Note_off_c, 0, 42, 64
1, 28896, Note_on_c, 0, 36, 49
1, 28896, Note_on_c, 0, 38, 96
1, 28896, Note_on_c, 0, 42, 23
1, 28912, Note_off_c, 0, 38, 64
1, 28944, Note_off_c, 0, 36, 64
1, 28944, Note_on_c, 0, 36, 48
1, 28944, Note_on_c, 0, 38, 47
1, 28944, Note_off_c, 0, 42, 64
1, 28944, Note_on_c, 0, 42, 50
1, 28954, Note_off_c, 0, 38, 64
1, 28991, Note_off_c, 0, 36, 64
1, 28991, Note_off_c, 0, 42, 64
1, 28992, Note_on_c, 0, 36, 57
1, 28992, Note_on_c, 0, 38, 46
1, 28992, Note_on_c, 0, 42, 20
1, 29003, Note_off_c, 0, 38, 64
1, 29014, Note_off_c, 0, 42, 64
1, 29016, Note_on_c, 0, 42, 20
1, 29040, Note_off_c, 0, 36, 64
1, 29040, Note_on_c, 0, 36, 68
1, 29040, Note_off_c, 0, 42, 64
1, 29040, Note_on_c, 0, 42, 43
1, 29064, Note_off_c, 0, 36, 64
1, 29064, Note_on_c, 0, 36, 53
1, 29064, Note_on_c, 0, 38, 36
1, 29064, Note_off_c, 0, 42, 64
1, 29064, Note_on_c, 0, 42, 16
1, 29080, Note_off_c, 0, 38, 64
1, 29084, Note_off_c, 0, 36, 64
1, 29084, Note_off_c, 0, 42, 64
1, 29088, Note_on_c, 0, 36, 56
1, 29088, Note_on_c, 0, 38, 97
1, 29088, Note_on_c, 0, 42, 20
1, 29102, Note_off_c, 0, 38, 64
1, 29112, Note_off_c, 0, 36, 64
1, 29112, Note_on_c, 0, 36, 66
1, 29112, Note_on_c, 0, 38, 39
1, 29112, Note_off_c, 0, 42, 64
1, 29112, Note_on_c, 0, 42, 7
1, 29126, Note_off_c, 0, 38, 64
1, 29136, Note_off_c, 0, 36, 64
1, 29136, Note_on_c, 0, 36, 51
1, 29136, Note_on_c, 0, 38, 38
1, 29136, Note_off_c, 0, 42, 64
1, 29136, Note_on_c, 0, 42, 52
1, 29149, Note_off_c, 0, 38, 64
1, 29183, Note_off_c, 0, 36, 64
1, 29183, Note_off_c, 0, 42, 64
1, 29184, Note_on_c, 0, 42, 5
1, 29229, Note_off_c, 0, 42, 64
1, 29232, Note_on_c, 0, 42, 34
1, 29256, Note_on_c, 0, 36, 60
1, 29256, Note_on_c, 0, 38, 39
1, 29256, Note_off_c, 0, 42, 64
1, 29256, Note_on_c, 0, 42, 6
1, 29274, Note_off_c, 0, 38, 64
1, 29328, Note_off_c, 0, 36, 64
1, 29328, Note_on_c, 0, 36, 57
1, 29328, Note_on_c, 0, 38, 42
1, 29328, Note_off_c, 0, 42, 64
1, 29328, Note_on_c, 0, 42, 3
1, 29338, Note_off_c, 0, 38, 64
1, 29423, Note_off_c, 0, 36, 64
1, 29423, Note_off_c, 0, 42, 64
1, 29424, Note_on_c, 0, 36, 68
1, 29424, Note_on_c, 0, 42, 19
1, 29435, Note_off_c, 0, 42, 64
1, 29448, Note_off_c, 0, 36, 64
1, 29448, Note_on_c, 0, 36, 53
1, 29448, Note_on_c, 0, 38, 36
1, 29448, Note_on_c, 0, 42, 5
1, 29463, Note_off_c, 0, 38, 64
1, 29493, Note_off_c, 0, 36, 64
1, 29496, Note_on_c, 0, 36, 64
1, 29499, Note_off_c, 0, 42, 64
1, 29520, Note_off_c, 0, 36, 64
1, 29520, Note_on_c, 0, 36, 54
1, 29520, Note_on_c, 0, 42, 5
1, 29568, Note_off_c, 0, 42, 64
1, 29568, Note_on_c, 0, 42, 4
1, 29599, Note_off_c, 0, 36, 64
1, 29613, Note_off_c, 0, 42, 64
1, 29616, Note_on_c, 0, 42, 34
1, 29640, Note_on_c, 0, 36, 60
1, 29640, Note_on_c, 0, 38, 39
1, 29640, Note_off_c, 0, 42, 64
1, 29640, Note_on_c, 0, 42, 6
1, 29658, Note_off_c, 0, 38, 64
1, 29712, Note_off_c, 0, 36, 64
1, 29712, Note_on_c, 0, 36, 57
1, 29712, Note_on_c, 0, 38, 42
1, 29712, Note_off_c, 0, 42, 64
1, 29712, Note_on_c, 0, 42, 3
1, 29722, Note_off_c, 0, 38, 64
1, 29807, Note_off_c, 0, 36, 64
1, 29807, Note_off_c, 0, 42, 64
1, 29808, Note_on_c, 0, 36, 68
1, 29808, Note_on_c, 0, 42, 19
1, 29820, Note_off_c, 0, 42, 64
1, 29832, Note_off_c, 0, 36, 64
1, 29832, Note_on_c, 0, 36, 53
1, 29832, Note_on_c, 0, 38, 36
1, 29832, Note_on_c, 0, 42, 5
1, 29847, Note_off_c, 0, 38, 64
1, 29877, Note_off_c, 0, 36, 64
1, 29877, Note_off_c, 0, 42, 64
1, 29880, Note_on_c, 0, 36, 58
1, 29880, Note_on_c, 0, 38, 39
1, 29880, Note_on_c, 0, 42, 3
1, 29895, Note_off_c, 0, 38, 64
1, 29904, Note_off_c, 0, 36, 64
1, 29904, Note_on_c, 0, 36, 54
1, 29904, Note_off_c, 0, 42, 64
1, 29904, Note_on_c, 0, 42, 5
1, 29951, Note_off_c, 0, 36, 64
1, 29951, Note_off_c, 0, 42, 64
1, 29952, Note_on_c, 0, 42, 19
1, 30000, Note_off_c, 0, 42, 64
1, 30000, Note_on_c, 0, 42, 45
1, 30024, Note_on_c, 0, 36, 43
1, 30024, Note_on_c, 0, 38, 39
1, 30024, Note_off_c, 0, 42, 64
1, 30024, Note_on_c, 0, 42, 16
1, 30046, Note_off_c, 0, 36, 64
1, 30046, Note_off_c, 0, 38, 64
1, 30046, Note_off_c, 0, 42, 64
1, 30048, Note_on_c, 0, 36, 47
1, 30048, Note_on_c, 0, 38, 63
1, 30048, Note_on_c, 0, 42, 32
1, 30065, Note_off_c, 0, 38, 64
1, 30096, Note_off_c, 0, 36, 64
1, 30096, Note_on_c, 0, 36, 47
1, 30096, Note_on_c, 0, 38, 47
1, 30096, Note_off_c, 0, 42, 64
1, 30096, Note_on_c, 0, 42, 50
1, 30106, Note_off_c, 0, 38, 64
1, 30143, Note_off_c, 0, 36, 64
1, 30143, Note_off_c, 0, 42, 64
1, 30144, Note_on_c, 0, 36, 57
1, 30144, Note_on_c, 0, 42, 22
1, 30192, Note_off_c, 0, 36, 64
1, 30192, Note_on_c, 0, 36, 68
1, 30192, Note_off_c, 0, 42, 64
1, 30192, Note_on_c, 0, 42, 43
1, 30216, Note_off_c, 0, 36, 64
1, 30216, Note_on_c, 0, 36, 53
1, 30216, Note_on_c, 0, 38, 36
1, 30216, Note_off_c, 0, 42, 64
1, 30216, Note_on_c, 0, 42, 16
1, 30232, Note_off_c, 0, 38, 64
1, 30238, Note_off_c, 0, 42, 64
1, 30240, Note_on_c, 0, 38, 77
1, 30240, Note_on_c, 0, 42, 33
1, 30256, Note_off_c, 0, 38, 64
1, 30262, Note_off_c, 0, 36, 64
1, 30264, Note_on_c, 0, 36, 64
1, 30264, Note_off_c, 0, 42, 64
1, 30264, Note_on_c, 0, 42, 6
1, 30286, Note_off_c, 0, 42, 64
1, 30287, Note_off_c, 0, 36, 64
1, 30288, Note_on_c, 0, 36, 55
1, 30288, Note_on_c, 0, 38, 35
1, 30288, Note_on_c, 0, 42, 53
1, 30302, Note_off_c, 0, 38, 64
1, 30336, Note_off_c, 0, 42, 64
1, 30336, Note_on_c, 0, 42, 19
1, 30344, Note_off_c, 0, 36, 64
1, 30381, Note_off_c, 0, 42, 64
1, 30384, Note_on_c, 0, 42, 45
1, 30408, Note_on_c, 0, 36, 43
1, 30408, Note_on_c, 0, 38, 39
1, 30408, Note_off_c, 0, 42, 64
1, 30408, Note_on_c, 0, 42, 16
1, 30432, Note_off_c, 0, 36, 64
1, 30432, Note_on_c, 0, 36, 46
1, 30432, Note_off_c, 0, 38, 64
1, 30432, Note_on_c, 0, 38, 61
1, 30432, Note_off_c, 0, 42, 64
1, 30432, Note_on_c, 0, 42, 32
1, 30448, Note_off_c, 0, 38, 64
1, 30480, Note_off_c, 0, 36, 64
1, 30480, Note_on_c, 0, 36, 47
1, 30480, Note_on_c, 0, 38, 47
1, 30480, Note_off_c, 0, 42, 64
1, 30480, Note_on_c, 0, 42, 50
1, 30490, Note_off_c, 0, 38, 64
1, 30527, Note_off_c, 0, 36, 64
1, 30527, Note_off_c, 0, 42, 64
1, 30528, Note_on_c, 0, 36, 57
1, 30528, Note_on_c, 0, 42, 22
1, 30552, Note_off_c, 0, 42, 64
1, 30552, Note_on_c, 0, 42, 20
1, 30576, Note_off_c, 0, 36, 64
1, 30576, Note_on_c, 0, 36, 69
1, 30576, Note_off_c, 0, 42, 64
1, 30576, Note_on_c, 0, 42, 43
1, 30600, Note_off_c, 0, 36, 64
1, 30600, Note_on_c, 0, 36, 53
1, 30600, Note_on_c, 0, 38, 36
1, 30600, Note_off_c, 0, 42, 64
1, 30600, Note_on_c, 0, 42, 16
1, 30616, Note_off_c, 0, 38, 64
1, 30622, Note_off_c, 0, 42, 64
1, 30624, Note_on_c, 0, 38, 77
1, 30624, Note_on_c, 0, 42, 33
1, 30640, Note_off_c, 0, 38, 64
1, 30645, Note_off_c, 0, 36, 64
1, 30647, Note_off_c, 0, 42, 64
1, 30648, Note_on_c, 0, 36, 58
1, 30648, Note_on_c, 0, 38, 39
1, 30648, Note_on_c, 0, 42, 6
1, 30662, Note_off_c, 0, 38, 64
1, 30672, Note_off_c, 0, 36, 64
1, 30672, Note_on_c, 0, 36, 54
1, 30672, Note_on_c, 0, 38, 38
1, 30672, Note_off_c, 0, 42, 64
1, 30672, Note_on_c, 0, 42, 53
1, 30685, Note_off_c, 0, 38, 64
1, 30711, Note_off_c, 0, 42, 64
1, 30715, Note_off_c, 0, 36, 64
1, 30720, Note_on_c, 0, 36, 103
1, 30720, Note_on_c, 0, 42, 20
1, 30768, Note_off_c, 0, 36, 64
1, 30768, Note_on_c, 0, 36, 59
1, 30768, Note_off_c, 0, 42, 64
1, 30768, Note_on_c, 0, 42, 69
1, 30786, Note_off_c, 0, 36, 64
1, 30816, Note_on_c, 0, 36, 63
1, 30816, Note_on_c, 0, 38, 37
1, 30816, Note_off_c, 0, 42, 64
1, 30816, Note_on_c, 0, 42, 45
1, 30836, Note_off_c, 0, 38, 64
1, 30862, Note_off_c, 0, 36, 64
1, 30862, Note_off_c, 0, 42, 64
1, 30864, Note_on_c, 0, 36, 51
1, 30864, Note_on_c, 0, 42, 63
1, 30912, Note_off_c, 0, 36, 64
1, 30912, Note_on_c, 0, 36, 56
1, 30912, Note_off_c, 0, 42, 64
1, 30912, Note_on_c, 0, 42, 2
1, 30943, Note_off_c, 0, 42, 64
1, 30960, Note_off_c, 0, 36, 64
1, 30960, Note_on_c, 0, 36, 50
1, 30960, Note_on_c, 0, 42, 64
1, 31007, Note_off_c, 0, 36, 64
1, 31007, Note_off_c, 0, 42, 64
1, 31008, Note_on_c, 0, 36, 49
1, 31008, Note_on_c, 0, 38, 60
1, 31008, Note_on_c, 0, 42, 16
1, 31028, Note_off_c, 0, 38, 64
1, 31056, Note_off_c, 0, 36, 64
1, 31056, Note_on_c, 0, 36, 51
1, 31056, Note_off_c, 0, 42, 64
1, 31056, Note_on_c, 0, 42, 62
1, 31101, Note_off_c, 0, 36, 64
1, 31101, Note_off_c, 0, 42, 64
1, 31104, Note_on_c, 0, 36, 78
1, 31104, Note_on_c, 0, 42, 2
1, 31134, Note_off_c, 0, 42, 64
1, 31152, Note_off_c, 0, 36, 64
1, 31152, Note_on_c, 0, 36, 51
1, 31152, Note_on_c, 0, 42, 63
1, 31178, Note_off_c, 0, 36, 64
1, 31199, Note_off_c, 0, 42, 64
1, 31200, Note_on_c, 0, 36, 63
1, 31200, Note_on_c, 0, 38, 43
1, 31200, Note_on_c, 0, 42, 16
1, 31221, Note_off_c, 0, 38, 64
1, 31247, Note_off_c, 0, 36, 64
1, 31247, Note_off_c, 0, 42, 64
1, 31248, Note_on_c, 0, 36, 51
1, 31248, Note_on_c, 0, 42, 63
1, 31296, Note_off_c, 0, 36, 64
1, 31296, Note_on_c, 0, 36, 56
1, 31296, Note_off_c, 0, 42, 64
1, 31296, Note_on_c, 0, 42, 2
1, 31327, Note_off_c, 0, 42, 64
1, 31344, Note_off_c, 0, 36, 64
1, 31344, Note_on_c, 0, 36, 50
1, 31344, Note_on_c, 0, 42, 64
1, 31391, Note_off_c, 0, 36, 64
1, 31391, Note_off_c, 0, 42, 64
1, 31392, Note_on_c, 0, 36, 49
1, 31392, Note_on_c, 0, 38, 61
1, 31392, Note_on_c, 0, 42, 15
1, 31412, Note_off_c, 0, 38, 64
1, 31416, Note_off_c, 0, 36, 64
1, 31416, Note_on_c, 0, 36, 49
1, 31416, Note_on_c, 0, 38, 38
1, 31416, Note_off_c, 0, 42, 64
1, 31416, Note_on_c, 0, 42, 6
1, 31436, Note_off_c, 0, 38, 64
1, 31438, Note_off_c, 0, 36, 64
1, 31438, Note_off_c, 0, 42, 64
1, 31440, Note_on_c, 0, 36, 60
1, 31440, Note_on_c, 0, 42, 61
1, 31464, Note_off_c, 0, 36, 64
1, 31472, Note_on_c, 0, 36, 60
1, 31472, Note_on_c, 0, 38, 68
1, 31472, Note_off_c, 0, 42, 64
1, 31472, Note_on_c, 0, 42, 48
1, 31487, Note_off_c, 0, 38, 64
1, 31489, Note_off_c, 0, 36, 64
1, 31489, Note_off_c, 0, 42, 64
1, 31489, End_track
0, 0, End_of_file
